<?xml version="1.0" standalone="no"?>
<!DOCTYPE svg PUBLIC "-//W3C//DTD SVG 20010904//EN"
 "http://www.w3.org/TR/2001/REC-SVG-20010904/DTD/svg10.dtd">
<svg version="1.0" xmlns="http://www.w3.org/2000/svg"
 width="4167.000000pt" height="3125.000000pt" viewBox="0 0 4167.000000 3125.000000"
 preserveAspectRatio="xMidYMid meet">

<g transform="translate(0.000000,3125.000000) scale(0.100000,-0.100000)"
fill="#000000" stroke="none">
<path d="M34366 28363 c-9 -59 -7 -329 4 -491 14 -187 33 -358 66 -595 15
-103 25 -189 23 -190 -2 -2 -60 -31 -129 -64 -321 -156 -533 -380 -618 -653
-25 -78 -43 -227 -56 -455 -12 -212 -17 -250 -41 -320 -35 -104 -73 -174 -140
-259 -73 -91 -91 -122 -105 -178 -10 -39 -9 -51 4 -80 22 -46 60 -66 152 -79
44 -7 80 -13 82 -14 9 -8 -22 -134 -39 -162 -20 -31 -20 -34 -3 -88 14 -43 23
-57 42 -62 17 -4 20 -9 13 -16 -20 -20 -12 -101 15 -152 25 -48 25 -51 13
-130 -18 -122 -9 -232 24 -287 36 -62 74 -78 179 -78 88 0 191 21 317 65 58
19 77 22 83 13 29 -46 128 -287 169 -408 79 -238 105 -421 80 -552 -23 -117
-159 -387 -580 -1153 -165 -299 -353 -677 -408 -815 -114 -292 -128 -584 -41
-849 19 -59 20 -71 9 -181 -16 -166 -14 -452 4 -605 19 -162 44 -291 100 -518
57 -227 75 -361 82 -622 6 -224 -5 -488 -39 -970 -12 -178 -21 -405 -22 -560
-1 -226 2 -280 22 -410 51 -328 89 -471 203 -757 45 -112 103 -269 130 -351
l50 -147 -21 -148 c-112 -825 -90 -1777 76 -3182 19 -162 48 -414 64 -560 35
-312 52 -417 90 -565 38 -146 83 -271 136 -377 l43 -86 -11 -94 c-12 -109 -5
-280 17 -393 44 -229 165 -477 308 -631 l57 -62 0 -224 c0 -621 87 -1676 194
-2349 174 -1094 262 -1986 235 -2397 -14 -227 -40 -297 -146 -392 -210 -188
-682 -416 -1293 -625 l-195 -66 -84 17 c-56 11 -116 15 -181 12 -81 -3 -105
-8 -153 -33 -107 -54 -217 -175 -217 -239 0 -42 32 -85 83 -110 65 -33 431
-182 569 -233 l103 -38 185 1 c190 1 379 16 745 60 116 13 327 38 470 55 346
41 536 42 834 5 301 -37 425 -34 536 14 39 17 55 18 137 10 451 -45 676 -51
781 -20 98 27 265 91 472 181 210 90 202 86 585 261 497 228 564 251 951 328
262 52 346 78 431 133 144 92 206 209 196 371 -13 202 -126 366 -373 541 l-93
66 -61 137 c-165 376 -290 815 -375 1317 -35 207 -50 320 -91 685 -109 963
-243 1565 -461 2078 -186 435 -538 972 -1035 1578 -110 135 -119 149 -119 188
0 26 -30 129 -81 276 -143 417 -182 605 -199 960 -28 582 -209 1636 -378 2201
l-29 97 61 48 c250 201 401 411 455 634 109 451 69 929 -115 1389 -100 248
-196 417 -479 837 -184 274 -261 402 -291 485 -23 64 -61 255 -79 399 -22 171
-30 567 -16 760 38 503 131 889 348 1450 231 596 392 1154 468 1620 70 431 73
876 10 1184 -46 222 -361 1340 -636 2254 l-79 263 36 71 c85 170 119 331 111
530 -6 147 -17 200 -98 443 -119 358 -289 601 -512 735 -44 26 -78 54 -81 65
-17 69 -85 710 -104 980 -6 93 -10 110 -24 113 -24 5 -24 -47 2 -338 66 -754
136 -1153 255 -1460 227 -584 1042 -3358 1112 -3785 26 -156 25 -630 -1 -830
-69 -537 -232 -1145 -466 -1745 -274 -699 -374 -1155 -387 -1755 -6 -277 4
-447 37 -668 46 -300 80 -375 353 -783 243 -362 300 -457 403 -669 193 -395
276 -792 246 -1173 -20 -250 -60 -430 -125 -558 -65 -128 -205 -281 -399 -437
l-97 -78 -6 -62 c-3 -34 -19 -213 -35 -397 -108 -1204 -216 -2025 -310 -2348
-72 -251 -90 -418 -90 -861 0 -213 -4 -350 -11 -376 -14 -48 -67 -103 -108
-111 -36 -7 -48 -21 -33 -36 17 -17 80 1 116 33 l34 29 32 -77 c152 -363 319
-868 410 -1236 137 -557 160 -956 89 -1582 -28 -250 -59 -451 -134 -870 -82
-455 -92 -521 -104 -680 -40 -496 -65 -1160 -59 -1561 l5 -300 50 -65 c124
-159 183 -296 191 -440 8 -160 -41 -279 -144 -350 -113 -77 -256 -94 -529 -60
-396 48 -524 48 -960 -5 -740 -88 -932 -106 -1150 -108 -201 -1 -177 -8 -580
156 -262 107 -308 131 -320 169 -15 48 85 163 186 215 73 37 192 44 319 18
l89 -18 128 43 c607 202 1142 453 1362 639 85 73 137 150 156 235 77 335 -5
1335 -220 2677 -93 579 -170 1491 -182 2144 l-6 330 34 -23 c50 -33 151 -81
172 -81 35 0 19 36 -21 48 -102 31 -263 172 -351 307 -92 141 -166 321 -196
477 -20 104 -29 285 -18 362 l8 59 37 -54 c58 -83 122 -149 146 -149 34 0 27
15 -38 85 -204 219 -343 599 -395 1080 -9 83 -38 339 -65 570 -109 935 -145
1393 -156 1985 -9 474 14 920 67 1308 l21 152 -37 118 c-20 64 -77 218 -125
342 -136 347 -168 462 -222 800 -20 126 -23 179 -22 400 0 150 10 378 22 555
62 864 52 1296 -35 1580 -3 12 25 -9 68 -50 135 -128 325 -237 644 -370 85
-35 206 -87 269 -115 63 -28 159 -63 213 -77 89 -24 115 -27 283 -27 203 -1
278 10 445 65 162 53 459 214 472 255 9 27 -29 19 -83 -17 -156 -105 -348
-190 -532 -237 -97 -24 -124 -27 -292 -27 -170 0 -193 2 -280 27 -53 14 -152
51 -220 81 -69 30 -197 85 -285 122 -300 127 -464 220 -585 332 -133 123 -167
199 -212 473 -19 116 -22 175 -22 415 -1 199 3 300 13 348 12 60 11 71 -3 102
-50 105 -80 326 -65 485 11 124 24 185 65 300 73 210 175 414 552 1105 242
443 414 781 446 876 68 203 -6 570 -199 982 -20 44 -35 81 -33 83 2 2 92 31
200 64 334 104 483 166 538 224 l24 27 48 -203 c61 -260 123 -567 139 -685 16
-127 6 -419 -21 -598 -44 -293 -129 -645 -235 -981 -50 -157 -53 -177 -28
-172 20 4 42 67 128 363 173 600 239 1099 190 1430 -33 220 -109 564 -290
1305 -435 1782 -572 2548 -581 3235 -2 222 -6 271 -17 273 -10 2 -16 -10 -21
-35z m151 -1569 c81 -442 208 -1011 417 -1871 53 -216 96 -404 96 -416 0 -43
-42 -90 -115 -129 -39 -21 -189 -76 -335 -124 -146 -47 -323 -106 -395 -130
-169 -57 -244 -74 -333 -74 -133 0 -167 41 -167 200 0 52 4 126 9 163 8 63 7
71 -14 99 -13 17 -25 50 -28 74 -7 64 17 72 144 51 99 -17 114 -16 114 7 0 9
-32 19 -97 31 -180 31 -196 37 -207 73 -7 24 -5 42 8 70 12 27 34 124 36 158
0 1 10 -1 23 -3 36 -7 106 16 133 42 37 37 29 135 -12 135 -12 0 -13 -9 -8
-49 6 -45 4 -50 -20 -66 -32 -21 -76 -22 -199 -2 -103 16 -141 33 -159 72 -14
32 22 109 96 200 66 83 126 193 156 290 17 55 24 120 35 305 20 339 41 454
110 590 75 149 203 287 369 398 77 51 276 153 290 149 5 -2 29 -111 53 -243z
m1419 170 c225 -168 383 -451 506 -904 33 -121 33 -367 1 -485 -21 -79 -92
-259 -99 -253 -2 2 -35 107 -74 233 -103 333 -224 697 -290 875 -32 85 -70
200 -84 255 -24 98 -66 307 -66 333 0 16 39 -3 106 -54z m777 -13169 c173
-608 340 -1597 367 -2165 17 -354 55 -539 199 -960 66 -191 81 -246 81 -295 0
-66 -21 -112 -65 -141 -30 -20 -33 -44 -4 -44 21 0 91 62 101 90 5 13 7 13 19
-1 499 -594 869 -1142 1073 -1587 233 -511 379 -1147 491 -2142 42 -379 65
-544 111 -795 90 -491 245 -1002 398 -1302 31 -62 43 -74 128 -133 51 -36 130
-101 174 -146 167 -167 226 -377 151 -535 -29 -62 -56 -93 -120 -142 -80 -61
-177 -93 -444 -147 -137 -27 -290 -61 -339 -75 -121 -35 -317 -114 -569 -230
-562 -258 -886 -396 -1068 -454 -86 -27 -111 -31 -215 -31 -64 0 -223 9 -352
20 -129 11 -243 20 -253 20 -13 0 -7 12 27 54 55 68 86 149 95 246 l6 75 55
18 c30 10 92 21 137 24 l83 6 188 141 c332 250 557 440 755 640 257 258 371
451 352 599 -46 375 -340 1099 -913 2252 -226 453 -382 792 -530 1150 -56 133
-74 192 -87 270 -73 456 -251 1048 -498 1659 -37 91 -43 115 -36 140 5 17 9
182 9 367 0 451 13 574 90 859 47 175 79 345 125 665 60 420 138 1145 199
1847 13 152 28 282 32 289 10 16 17 0 47 -106z m322 -6565 c26 -58 124 -258
217 -445 632 -1261 980 -2118 982 -2417 0 -60 -5 -76 -47 -160 -57 -113 -128
-203 -295 -372 -204 -208 -438 -406 -770 -654 -154 -115 -166 -122 -210 -122
-44 0 -158 -21 -193 -35 -13 -5 -19 7 -32 62 -22 91 -92 229 -169 333 l-63 85
1 470 c0 452 6 626 39 1150 20 312 32 398 110 835 146 808 196 1265 181 1675
l-6 180 104 -240 c57 -132 125 -287 151 -345z"/>
<path d="M33745 25910 c-14 -22 11 -30 98 -30 104 0 187 -17 273 -55 36 -16
61 -22 67 -16 23 23 -46 62 -160 92 -82 21 -267 27 -278 9z"/>
<path d="M33844 25593 c4 -38 11 -72 17 -78 5 -5 42 -9 82 -9 73 1 150 27 177
59 14 17 5 35 -18 35 -9 0 -70 14 -136 30 -65 17 -121 30 -123 30 -3 0 -3 -30
1 -67z m223 -29 c-21 -19 -78 -34 -132 -34 -57 0 -65 9 -65 71 l0 26 105 -26
c80 -19 102 -28 92 -37z"/>
<path d="M36930 10198 c0 -51 19 -125 49 -192 11 -27 20 -50 19 -51 -2 -2 -72
-37 -155 -79 -95 -47 -153 -82 -153 -91 0 -29 43 -15 189 61 l146 75 18 -23
c42 -53 100 -108 113 -108 27 0 14 35 -30 80 -85 86 -156 237 -156 331 0 32
-3 39 -20 39 -17 0 -20 -7 -20 -42z"/>
<path d="M29180 28148 c0 -702 -147 -1511 -634 -3498 -192 -785 -256 -1114
-256 -1323 0 -352 107 -902 275 -1414 43 -133 61 -164 79 -135 3 5 -18 78 -45
163 -195 599 -300 1226 -260 1549 15 124 70 402 132 670 64 275 59 258 72 234
33 -59 186 -126 552 -239 99 -30 186 -57 193 -60 9 -3 3 -24 -22 -73 -87 -174
-169 -404 -207 -582 -31 -148 -31 -320 0 -410 38 -110 208 -444 466 -915 457
-835 552 -1046 591 -1306 26 -180 9 -361 -50 -526 -20 -54 -24 -77 -17 -96 20
-53 33 -376 21 -541 -12 -176 -49 -411 -78 -498 -67 -202 -280 -361 -747 -558
-93 -40 -219 -94 -280 -120 -213 -93 -304 -113 -505 -113 -157 0 -266 18 -417
68 -104 35 -301 131 -387 189 -73 49 -100 57 -94 29 8 -43 285 -196 457 -253
325 -109 634 -102 914 21 51 22 173 74 272 115 352 148 542 255 677 382 37 35
68 61 68 57 0 -4 -7 -33 -15 -64 -70 -273 -78 -709 -24 -1453 11 -156 23 -404
26 -553 5 -244 3 -284 -16 -420 -51 -350 -91 -505 -202 -783 -39 -97 -97 -255
-129 -349 l-59 -173 24 -177 c41 -307 56 -537 62 -963 9 -671 -24 -1193 -138
-2170 -22 -190 -53 -463 -69 -607 -35 -311 -66 -477 -121 -650 -70 -221 -189
-441 -293 -543 -45 -43 -60 -80 -33 -80 18 0 114 101 152 159 38 57 43 43 44
-114 1 -193 -26 -332 -97 -506 -102 -250 -254 -431 -434 -517 -78 -37 -99 -62
-53 -62 30 0 66 15 134 58 42 26 56 31 63 20 19 -27 -11 -757 -52 -1273 -42
-531 -80 -861 -140 -1235 -163 -1016 -247 -1839 -237 -2310 8 -329 25 -390
146 -511 191 -190 680 -429 1326 -648 l209 -72 66 18 c40 10 103 17 165 18 90
0 106 -3 157 -28 32 -16 83 -51 113 -79 87 -79 106 -135 62 -176 -22 -21 -243
-116 -537 -230 l-145 -57 -210 1 c-226 1 -358 12 -885 75 -724 87 -761 87
-1300 24 -269 -32 -442 22 -528 165 -42 71 -53 108 -57 200 -5 96 15 192 60
285 38 80 111 192 154 238 l26 28 3 377 c4 383 -7 744 -34 1177 -27 446 -30
469 -114 930 -88 485 -127 743 -162 1065 -21 196 -18 781 5 940 68 479 226
1027 478 1667 34 84 64 153 69 153 4 0 13 -7 21 -16 34 -41 134 -62 127 -27
-2 10 -17 20 -36 24 -48 10 -87 52 -107 116 -16 50 -17 84 -11 307 11 402 -13
640 -94 936 -48 177 -78 336 -125 669 -60 432 -164 1415 -207 1959 -14 180 2
152 -156 280 -197 162 -332 328 -391 482 -58 150 -92 384 -92 625 0 374 79
692 265 1064 106 211 131 250 492 789 152 226 200 341 238 567 95 561 54 1218
-113 1825 -49 177 -98 321 -192 562 -439 1124 -607 2049 -494 2716 28 159 171
689 406 1502 323 1114 589 1964 723 2308 90 230 164 662 220 1292 40 449 39
429 21 436 -9 4 -18 4 -20 2 -3 -3 -12 -92 -20 -199 -18 -226 -58 -611 -81
-787 l-17 -123 -96 -63 c-148 -98 -267 -230 -364 -406 -81 -147 -191 -464
-222 -639 -38 -212 -4 -427 101 -652 l36 -76 -111 -369 c-324 -1085 -580
-2007 -616 -2216 -53 -316 -43 -719 31 -1153 84 -489 234 -1002 474 -1615 212
-542 312 -989 340 -1521 16 -315 -11 -680 -71 -944 -32 -139 -97 -260 -315
-585 -237 -353 -314 -479 -404 -665 -194 -400 -272 -774 -249 -1190 14 -240
61 -451 132 -590 58 -115 194 -271 342 -393 44 -36 83 -68 88 -72 4 -3 -4 -44
-18 -91 -82 -269 -194 -788 -265 -1220 -73 -453 -105 -727 -120 -1030 -15
-327 -49 -484 -190 -903 -44 -132 -84 -264 -88 -295 -8 -53 -15 -64 -150 -229
-279 -339 -563 -736 -741 -1036 -181 -303 -277 -512 -381 -826 -162 -487 -255
-972 -350 -1830 -94 -842 -235 -1431 -467 -1946 l-54 -121 -84 -57 c-254 -173
-380 -366 -380 -581 1 -80 4 -98 32 -158 39 -83 109 -152 201 -200 95 -49 135
-60 418 -116 363 -73 468 -110 1031 -369 432 -200 708 -316 908 -383 93 -32
109 -34 230 -34 131 0 549 29 638 44 38 7 57 5 85 -9 105 -50 265 -56 532 -20
344 45 506 40 1115 -35 444 -55 675 -76 897 -82 203 -6 208 -6 291 21 74 23
561 217 625 249 40 20 72 65 72 103 0 79 -94 185 -218 246 -64 32 -71 33 -182
32 -70 -1 -136 -7 -169 -17 l-55 -15 -190 65 c-612 207 -1099 442 -1304 628
-134 122 -147 175 -146 595 0 209 6 379 17 505 39 429 112 1022 182 1470 19
121 46 292 59 380 50 318 109 922 146 1500 16 252 33 787 26 848 l-6 59 56 61
c144 159 255 380 311 619 14 57 17 122 18 298 l0 225 34 70 c114 239 170 464
215 866 14 123 46 397 70 609 118 1008 152 1533 143 2220 -6 424 -12 543 -48
850 -36 311 -37 281 11 426 24 71 79 219 122 329 126 319 166 470 218 830 20
135 22 177 17 425 -3 151 -15 403 -26 560 -33 458 -43 790 -31 1006 12 228 27
321 86 558 105 419 133 749 93 1112 -9 82 -8 98 11 153 75 224 77 502 4 732
-64 202 -202 484 -546 1114 -465 850 -510 953 -493 1145 17 197 116 515 234
748 l29 58 115 -38 c138 -44 248 -61 336 -48 72 10 103 32 132 95 22 47 26
207 8 296 -10 52 -10 57 16 95 24 35 26 47 23 105 -3 59 -1 67 17 75 12 6 25
28 33 58 13 46 13 52 -8 94 -15 29 -23 65 -24 101 l-1 56 60 7 c85 11 121 25
150 59 49 59 25 142 -80 273 -75 93 -108 154 -145 264 -28 85 -32 109 -41 295
-19 415 -55 556 -190 747 -73 103 -174 199 -296 281 -93 61 -278 159 -302 159
-21 0 -20 27 9 227 53 371 63 498 64 803 1 264 0 285 -16 288 -17 3 -18 -13
-18 -220z m75 -1195 c233 -117 428 -299 523 -488 70 -141 96 -280 112 -605 14
-291 55 -414 195 -586 25 -32 57 -79 71 -106 56 -110 24 -137 -200 -169 -83
-12 -91 -11 -125 7 -35 19 -36 21 -33 72 2 43 0 51 -13 46 -36 -14 -47 -83
-19 -123 22 -30 73 -51 127 -51 l44 0 6 -56 c3 -31 15 -73 25 -95 17 -33 18
-46 9 -75 -12 -39 -4 -36 -177 -68 -97 -18 -126 -26 -128 -39 -4 -22 29 -22
137 -2 65 13 84 13 101 3 30 -19 27 -82 -7 -131 -26 -38 -27 -40 -15 -108 16
-94 15 -232 -2 -272 -45 -106 -179 -109 -471 -12 -88 29 -261 85 -385 125
-256 82 -390 137 -431 176 -60 57 -61 43 70 585 203 838 318 1356 401 1805 22
121 40 223 40 227 0 8 54 -15 145 -60z m-1505 28 c0 -31 -38 -225 -66 -336
-14 -55 -48 -158 -76 -230 -59 -150 -184 -527 -288 -865 -40 -129 -76 -239
-80 -243 -9 -10 -84 179 -107 269 -12 49 -17 111 -17 214 -1 162 10 214 91
459 83 252 186 441 315 577 66 69 198 174 220 174 4 0 8 -9 8 -19z m-808
-13312 c45 -530 110 -1166 163 -1599 64 -517 110 -789 170 -1000 75 -266 100
-514 89 -906 -5 -180 -4 -264 5 -300 11 -47 10 -54 -20 -124 -104 -245 -269
-713 -348 -986 -76 -265 -171 -689 -171 -766 0 -23 -129 -334 -276 -665 -51
-116 -192 -409 -312 -650 -611 -1227 -932 -2026 -932 -2320 0 -94 25 -162 105
-283 160 -242 519 -573 1039 -960 l139 -103 101 -13 c56 -8 120 -20 141 -27
40 -14 40 -14 46 -78 13 -121 43 -198 111 -274 21 -25 26 -36 16 -39 -7 -2
-85 -9 -173 -15 -88 -6 -223 -16 -300 -22 -77 -6 -169 -9 -205 -6 -124 10
-454 140 -1037 408 -588 271 -682 304 -1033 375 -291 58 -331 69 -417 111
-209 102 -277 281 -193 505 47 127 166 259 335 374 79 54 86 62 121 133 147
307 283 744 374 1201 49 248 81 463 120 815 126 1134 279 1775 558 2332 203
403 506 850 925 1360 l99 121 32 -41 c40 -53 80 -77 98 -59 10 10 4 20 -30 50
-85 76 -84 112 22 426 147 437 181 597 196 928 29 626 204 1634 397 2291 3 10
11 16 17 14 7 -2 17 -80 28 -208z m-140 -6141 c-6 -458 30 -781 178 -1603 79
-439 85 -485 105 -775 32 -480 40 -688 40 -1170 l0 -505 -57 -75 c-74 -96
-156 -259 -171 -339 -11 -59 -13 -62 -37 -57 -71 17 -179 35 -209 36 -28 0
-68 26 -225 144 -479 361 -824 682 -977 910 -72 106 -99 178 -99 259 1 286
337 1115 956 2357 117 234 246 502 287 595 79 181 181 418 197 460 5 14 11 25
12 25 2 0 2 -118 0 -262z"/>
<path d="M29630 25893 c-46 -8 -134 -35 -182 -55 -51 -22 -73 -58 -34 -58 12
0 26 4 32 9 5 5 45 22 89 37 61 20 107 28 193 32 97 4 112 7 110 21 -3 13 -19
16 -93 17 -50 1 -101 0 -115 -3z"/>
<path d="M29690 25624 c-25 -7 -88 -23 -140 -34 -52 -12 -96 -23 -99 -25 -8
-8 23 -37 62 -57 45 -22 128 -34 180 -24 33 6 34 8 45 74 6 36 8 70 4 73 -4 4
-27 1 -52 -7z m23 -61 c-3 -21 -9 -42 -14 -47 -14 -16 -115 -8 -160 12 -49 22
-50 21 66 50 117 28 115 29 108 -15z"/>
<path d="M26616 10208 c-2 -7 -7 -40 -10 -73 -7 -80 -67 -201 -141 -283 -35
-38 -55 -68 -51 -77 9 -25 23 -17 86 53 l62 68 154 -79 c102 -51 159 -75 169
-70 8 5 11 13 7 19 -4 6 -75 46 -159 88 l-152 78 18 37 c31 60 52 147 49 197
-3 45 -23 71 -32 42z"/>
<path d="M18738 27595 c-48 -8 -128 -28 -177 -44 -422 -141 -686 -484 -742
-962 -14 -126 -6 -366 16 -459 31 -130 31 -130 2 -130 -48 0 -62 -39 -61 -165
3 -180 59 -346 173 -505 29 -41 76 -107 102 -147 27 -39 64 -83 82 -97 33 -25
33 -26 51 -173 10 -82 21 -244 23 -361 6 -227 -3 -324 -38 -417 -43 -114 -195
-216 -604 -405 -359 -165 -502 -237 -597 -298 -121 -79 -219 -124 -348 -163
-131 -39 -151 -49 -278 -142 -56 -42 -124 -83 -150 -93 -26 -9 -65 -23 -87
-31 -65 -23 -167 -105 -223 -179 -162 -214 -243 -491 -342 -1154 -42 -282 -69
-425 -139 -730 -93 -407 -104 -640 -75 -1565 6 -186 5 -205 -15 -280 -12 -44
-67 -172 -121 -285 -217 -454 -269 -657 -485 -1895 -107 -613 -131 -729 -215
-1020 -105 -361 -141 -435 -242 -486 -142 -72 -212 -131 -493 -419 -191 -196
-223 -241 -276 -390 -12 -36 -45 -105 -73 -154 -61 -109 -74 -183 -35 -210 13
-9 43 -16 69 -16 139 0 296 112 350 250 13 32 27 44 93 78 42 22 77 36 77 31
0 -53 -71 -309 -185 -664 -171 -532 -214 -741 -170 -825 21 -40 68 -64 117
-57 79 11 144 88 173 207 20 81 166 522 171 517 3 -2 -11 -82 -30 -178 -76
-386 -97 -609 -62 -677 19 -37 62 -62 107 -62 41 0 101 35 122 70 10 16 35
127 57 247 23 120 48 245 56 278 16 67 94 296 103 307 4 4 -1 -59 -10 -140
-33 -281 -52 -529 -44 -577 10 -70 48 -105 112 -105 59 0 104 25 126 72 9 19
43 167 76 329 34 162 70 321 80 354 l20 60 -7 -110 c-12 -192 -9 -416 7 -454
33 -78 137 -71 186 13 29 51 53 142 105 416 22 118 83 388 135 600 134 549
149 628 150 830 1 140 4 169 19 192 9 14 22 57 27 95 24 178 150 591 252 825
30 70 83 176 116 235 126 221 203 399 328 763 137 397 218 709 239 915 5 48
14 81 31 106 52 79 55 107 63 519 9 464 1 412 152 925 16 55 55 210 87 344 32
134 60 240 63 235 13 -20 48 -268 58 -403 19 -263 57 -458 157 -813 66 -236
65 -216 34 -603 -33 -418 -42 -615 -40 -862 l2 -231 -28 -34 c-36 -42 -61
-100 -69 -158 -3 -25 -19 -211 -36 -415 -38 -464 -70 -726 -120 -975 -50 -250
-58 -315 -71 -600 -20 -431 8 -976 76 -1505 36 -279 66 -431 160 -805 195
-779 356 -1664 385 -2120 6 -91 20 -211 31 -266 19 -94 19 -104 5 -133 -9 -16
-21 -77 -27 -133 -5 -57 -24 -168 -40 -248 -86 -417 -99 -509 -120 -880 -14
-254 -6 -727 15 -902 28 -228 58 -342 137 -524 178 -414 374 -1188 386 -1529
5 -139 4 -142 -43 -355 -43 -196 -48 -227 -48 -350 -1 -118 2 -140 20 -177
l21 -42 -24 -72 c-55 -171 -78 -346 -93 -711 -9 -237 -9 -237 -40 -298 -17
-34 -47 -110 -67 -168 -32 -94 -37 -119 -37 -207 -1 -89 2 -106 26 -155 l27
-55 -25 -23 c-32 -30 -44 -62 -44 -118 0 -82 50 -154 107 -154 20 0 24 -4 22
-28 -5 -63 2 -85 35 -118 26 -26 42 -34 70 -34 31 0 36 -3 36 -24 0 -50 71
-105 137 -106 20 -1 34 -10 48 -32 29 -46 67 -70 119 -75 31 -4 46 -10 46 -20
0 -30 31 -71 66 -88 48 -22 105 -15 182 24 127 64 188 176 212 391 9 81 18
110 60 200 98 205 103 360 25 745 -44 215 -43 408 1 659 12 67 19 84 52 120
88 96 150 253 159 403 9 151 -18 275 -99 456 -51 114 -64 194 -79 481 -12 236
-3 724 22 1151 11 177 13 194 40 253 74 159 104 347 103 657 0 337 -17 468
-133 1047 l-69 348 40 97 c53 131 183 521 219 661 16 62 29 139 29 171 0 31
-13 176 -30 321 -40 364 -50 526 -57 955 -13 850 46 1728 138 2020 l22 70 13
-37 c33 -95 71 -408 94 -778 17 -269 24 -1242 11 -1525 -14 -302 -23 -406 -62
-730 -37 -298 -35 -328 25 -537 40 -138 167 -514 211 -628 l18 -46 -51 -249
c-28 -138 -65 -315 -81 -395 -51 -241 -71 -430 -78 -700 -7 -335 20 -537 97
-706 27 -60 29 -75 40 -276 18 -354 24 -962 11 -1166 -16 -248 -32 -336 -85
-452 -106 -230 -127 -419 -70 -610 23 -78 89 -202 130 -244 30 -31 37 -48 49
-116 23 -133 38 -329 31 -425 -3 -49 -22 -168 -41 -265 -74 -379 -68 -524 30
-720 37 -74 44 -99 54 -195 18 -161 63 -276 133 -343 48 -44 139 -82 201 -82
51 0 62 4 88 29 19 19 29 40 29 59 0 27 2 29 44 29 55 0 117 37 135 81 10 23
17 28 36 24 58 -11 145 52 145 105 0 16 8 21 43 26 71 10 105 61 98 150 -2 23
2 27 22 27 30 0 73 32 92 70 31 61 11 185 -34 210 l-21 11 27 52 c21 41 27 70
31 138 5 107 -18 204 -87 368 l-49 116 -6 235 c-8 336 -26 483 -82 678 l-24
83 22 42 c46 88 35 254 -37 587 -46 210 -44 304 11 600 83 442 208 871 353
1213 104 244 138 404 162 753 15 213 6 807 -15 1029 -15 158 -26 223 -85 520
-17 83 -35 196 -40 253 -6 68 -17 118 -31 146 -20 42 -20 47 -6 103 17 64 29
161 51 427 38 432 212 1320 408 2076 166 638 234 1278 224 2085 -5 420 -9 469
-61 723 -50 243 -81 510 -116 997 -32 446 -34 459 -91 542 l-32 46 2 276 c2
284 -6 478 -39 921 -21 288 -26 248 60 551 72 255 125 509 140 674 27 292 52
467 69 487 4 4 28 -87 54 -202 44 -193 63 -267 163 -620 67 -240 76 -316 75
-672 -2 -360 5 -426 53 -513 26 -47 34 -77 40 -140 16 -186 91 -482 212 -838
116 -340 206 -547 350 -807 155 -281 321 -782 354 -1073 6 -47 17 -89 28 -105
16 -23 18 -39 12 -117 -15 -194 15 -375 160 -970 33 -137 83 -369 111 -515 68
-364 83 -416 129 -462 30 -30 45 -38 74 -38 53 0 72 14 92 65 15 41 16 71 11
273 -4 125 -10 241 -13 257 -4 17 -4 27 0 24 14 -13 57 -194 101 -428 56 -298
69 -338 114 -368 45 -30 132 -32 160 -4 25 25 41 82 41 144 0 52 -34 438 -50
572 -14 111 -13 111 26 5 53 -147 80 -255 124 -504 43 -243 54 -272 110 -301
16 -8 49 -15 74 -15 66 0 104 36 116 112 15 93 -16 343 -81 667 -16 79 -27
146 -25 148 6 6 142 -411 165 -504 24 -98 48 -148 92 -191 53 -52 119 -61 175
-25 84 54 49 280 -136 868 -113 358 -196 674 -173 663 4 -2 40 -20 80 -38 62
-30 73 -39 82 -70 35 -117 187 -242 311 -257 138 -16 164 46 84 202 -26 50
-66 138 -90 197 -55 138 -99 206 -193 298 -42 41 -132 133 -201 204 -147 151
-229 220 -325 272 -38 20 -81 47 -94 58 -53 48 -104 185 -190 516 -76 293 -79
309 -245 1331 -121 744 -216 1092 -408 1494 -55 115 -111 243 -124 283 -32 93
-34 185 -15 573 17 346 10 797 -13 979 -9 69 -28 179 -42 245 -61 289 -67 343
-60 575 3 118 9 279 12 356 21 486 -151 998 -397 1179 -32 24 -80 51 -106 61
-103 37 -154 64 -244 132 -116 86 -125 91 -274 137 -141 44 -188 67 -355 171
-69 44 -253 144 -410 223 -450 228 -603 328 -654 429 -63 124 -87 394 -70 789
l7 149 30 14 c48 21 154 204 256 441 49 114 92 286 94 376 2 58 -1 67 -22 85
-14 10 -33 17 -43 15 -10 -3 -18 -4 -18 -4 0 1 6 36 14 77 50 258 41 605 -20
839 -99 381 -351 604 -774 686 -119 23 -409 29 -522 10z m547 -54 c222 -49
373 -129 504 -267 68 -71 91 -105 136 -198 94 -192 133 -422 122 -711 -13
-314 -75 -536 -185 -659 -26 -30 -31 -40 -21 -47 8 -5 22 -3 34 5 32 21 92
116 121 191 32 82 40 95 65 95 38 0 36 -73 -8 -245 -40 -156 -197 -491 -267
-571 l-35 -39 0 45 c0 25 3 75 8 113 7 64 10 70 59 120 51 52 64 77 39 77 -7
0 -29 -14 -50 -31 l-37 -30 0 41 c0 34 -3 41 -17 38 -15 -3 -21 -26 -35 -153
-54 -494 -52 -1002 7 -1165 58 -162 177 -249 725 -525 168 -85 347 -182 399
-215 128 -83 214 -125 329 -161 164 -51 181 -59 283 -136 99 -73 158 -105 252
-138 191 -67 365 -352 442 -722 47 -226 50 -365 20 -823 -6 -95 11 -325 31
-410 87 -370 99 -495 98 -995 0 -231 -5 -499 -12 -595 -13 -195 -5 -308 27
-403 11 -32 58 -139 105 -240 204 -438 244 -600 455 -1847 110 -649 127 -733
205 -1007 64 -226 113 -369 151 -440 33 -61 34 -62 12 -65 -41 -6 -25 -32 23
-39 62 -9 149 -50 229 -106 82 -58 480 -459 527 -531 19 -29 44 -73 54 -97
l19 -45 -27 -6 c-15 -3 -37 -7 -49 -10 -13 -2 -23 -12 -23 -21 0 -13 9 -15 60
-10 48 5 60 4 60 -8 0 -7 27 -67 60 -132 43 -83 60 -127 58 -148 -3 -30 -4
-30 -63 -30 -73 0 -133 27 -205 92 -45 40 -100 124 -100 152 0 5 9 11 21 14
25 7 16 27 -11 27 -11 0 -22 11 -29 31 -10 30 -31 32 -31 3 0 -25 -35 -15
-103 31 -37 25 -73 45 -79 45 -36 0 39 -324 172 -740 167 -526 212 -745 168
-812 -24 -36 -70 -45 -111 -21 -42 25 -93 111 -107 182 -38 185 -269 801 -312
827 -5 3 -14 2 -20 -4 -6 -6 6 -60 36 -156 44 -142 106 -435 142 -676 21 -140
24 -306 7 -337 -19 -33 -75 -48 -110 -30 -57 30 -62 44 -104 273 -21 121 -50
262 -63 314 -28 114 -193 572 -209 582 -23 14 -28 -10 -13 -68 36 -147 55
-284 86 -613 24 -258 25 -342 5 -381 -27 -53 -104 -48 -147 10 -11 16 -34 106
-63 260 -25 129 -57 283 -70 342 -34 141 -113 385 -132 404 -25 24 -32 -1 -17
-54 33 -119 60 -691 36 -754 -16 -40 -45 -52 -82 -33 -54 28 -73 89 -140 455
-23 124 -77 374 -120 555 -136 569 -167 751 -155 912 6 84 9 92 28 95 30 4 36
38 7 38 -36 0 -70 44 -70 90 0 94 -74 391 -159 642 -67 197 -130 340 -216 494
-131 235 -235 481 -355 844 -110 332 -173 581 -186 742 l-7 73 39 0 c50 0 54
26 6 36 -45 9 -87 52 -108 108 -15 39 -19 102 -24 436 -8 451 -9 460 -115 830
-68 238 -173 679 -182 760 -4 41 6 85 55 250 86 285 102 354 112 479 11 135
37 240 85 342 23 51 32 81 26 87 -17 17 -38 -10 -71 -89 -43 -103 -68 -206
-75 -311 -9 -130 -19 -173 -100 -449 -116 -392 -144 -524 -165 -789 -19 -246
-61 -452 -164 -814 -65 -227 -65 -215 -36 -606 27 -377 42 -778 34 -922 -4
-68 -8 -123 -10 -123 -2 0 -32 21 -66 46 -77 57 -192 115 -295 150 -95 33
-199 36 -288 10 -90 -26 -306 -135 -425 -214 -164 -109 -183 -133 -200 -253
-9 -60 -8 -75 4 -87 12 -12 15 -12 24 4 5 11 12 44 15 75 3 31 13 71 22 88 44
85 404 297 590 347 101 28 199 12 350 -56 148 -67 294 -190 335 -284 16 -36
26 -114 50 -422 48 -602 74 -826 130 -1099 42 -206 51 -298 57 -630 14 -737
-63 -1465 -219 -2075 -224 -874 -385 -1718 -423 -2215 -9 -109 -22 -231 -30
-270 -8 -38 -15 -73 -15 -77 0 -4 -25 6 -56 23 -63 32 -84 36 -84 14 0 -8 4
-15 8 -15 5 0 29 -16 53 -35 66 -51 88 -98 100 -207 11 -114 19 -156 74 -433
53 -261 71 -426 87 -796 9 -210 9 -329 0 -496 -20 -383 -59 -575 -165 -821
-148 -338 -276 -781 -373 -1287 -21 -109 -27 -172 -28 -285 -1 -134 2 -160 41
-345 50 -234 61 -345 43 -430 l-12 -60 -29 58 c-16 31 -36 57 -44 57 -21 0
-19 -24 9 -78 96 -191 142 -430 154 -806 6 -197 6 -213 -10 -205 -32 17 -25
-17 28 -126 149 -306 164 -492 52 -619 -43 -49 -156 -145 -223 -189 -96 -63
-314 -117 -466 -114 -30 0 -61 -3 -67 -7 -20 -12 -3 -26 34 -26 42 0 48 -27 7
-32 -40 -4 -36 -31 5 -39 74 -15 133 -109 158 -249 14 -85 6 -112 -42 -131
-53 -19 -162 29 -226 99 -57 63 -107 226 -108 355 0 36 -11 69 -44 135 -105
209 -109 346 -24 751 26 126 30 167 30 296 0 83 -5 188 -11 235 -25 181 -25
184 -12 175 11 -6 185 -34 219 -35 6 0 12 7 12 15 0 20 -6 22 -122 39 -143 20
-180 49 -251 191 -64 128 -87 262 -67 398 6 47 17 93 23 101 18 24 162 56 258
58 109 2 158 -21 251 -115 51 -51 79 -91 114 -162 43 -86 48 -104 52 -180 4
-73 2 -89 -17 -120 -11 -20 -21 -43 -21 -51 0 -20 27 -18 40 4 9 15 15 12 50
-28 63 -70 86 -117 113 -227 29 -115 78 -228 107 -243 29 -16 26 4 -15 93 -19
41 -44 114 -55 161 -24 105 -47 152 -114 234 l-50 63 3 74 c3 84 -14 157 -59
246 -37 73 -116 171 -175 217 l-47 37 6 75 c10 106 40 247 79 372 32 99 34
140 8 124 -29 -18 -105 -322 -127 -508 l-5 -47 -31 11 c-39 14 -226 4 -295
-16 -30 -8 -53 -10 -53 -5 0 18 93 214 132 276 75 124 178 350 178 392 0 46
-28 17 -60 -61 -18 -46 -55 -126 -82 -178 -44 -85 -48 -91 -44 -55 2 22 10
155 17 295 10 204 10 338 0 670 -7 228 -15 453 -18 500 l-6 85 41 -37 c65 -59
132 -86 132 -54 0 7 -26 28 -57 47 -183 108 -262 417 -241 935 9 210 37 431
83 650 20 93 61 290 91 438 88 431 159 708 204 796 21 42 90 111 141 142 88
54 243 95 397 105 l92 6 0 -54 c0 -79 37 -124 69 -85 10 11 9 25 -3 61 -20 57
-20 101 0 190 26 113 27 125 15 125 -14 0 -37 -51 -61 -135 l-17 -60 -121 -12
c-185 -18 -296 -50 -405 -116 -26 -16 -51 -26 -54 -23 -4 3 -6 55 -6 114 1
112 32 323 78 527 17 72 22 112 15 119 -18 18 -29 -7 -54 -119 -57 -251 -69
-344 -71 -521 -2 -167 -2 -171 -29 -210 -40 -59 -109 -288 -172 -574 -6 -24
-6 -24 -20 10 -31 73 -128 362 -181 540 -69 235 -72 275 -39 535 54 427 65
609 73 1150 12 898 -38 1700 -123 1950 -24 69 -24 74 -24 488 0 229 3 417 8
417 4 -1 23 -21 42 -46 57 -74 239 -246 320 -303 100 -70 230 -135 337 -168
79 -24 103 -27 243 -26 245 0 433 48 592 153 111 73 209 188 187 220 -8 12
-14 10 -32 -15 -50 -69 -165 -171 -232 -207 -211 -110 -535 -148 -745 -88 -99
28 -232 95 -332 167 -97 70 -242 210 -326 316 l-62 78 0 530 c0 464 -2 529
-15 529 -13 0 -15 -65 -15 -523 l0 -524 -30 -44 c-40 -62 -158 -189 -254 -277
-138 -125 -287 -214 -446 -263 -67 -21 -93 -24 -245 -23 -183 0 -264 14 -409
68 -130 49 -257 143 -313 231 -28 45 -47 56 -56 32 -9 -23 81 -134 151 -186
125 -94 260 -147 452 -176 285 -44 495 5 750 173 82 55 285 246 363 342 l36
45 -2 -440 -3 -440 -32 -87 c-93 -251 -145 -901 -145 -1823 -1 -590 10 -809
64 -1249 35 -291 32 -313 -115 -751 -94 -280 -127 -361 -133 -330 -18 88 -107
436 -123 479 -11 29 -34 73 -50 98 -29 44 -30 46 -20 119 10 85 0 224 -31 403
-45 269 -69 349 -95 323 -3 -3 10 -86 29 -184 20 -98 41 -214 48 -258 13 -85
18 -309 7 -320 -3 -4 -25 7 -48 24 -88 63 -254 111 -442 126 l-87 7 -16 54
c-22 77 -54 146 -63 140 -5 -3 0 -45 10 -93 15 -67 19 -111 15 -180 -5 -78 -3
-93 9 -93 19 0 44 59 44 101 l0 32 88 -6 c204 -15 374 -72 468 -159 76 -70 92
-107 163 -384 49 -192 224 -1064 245 -1224 72 -530 34 -979 -98 -1189 -27 -43
-122 -131 -141 -131 -20 0 -40 -29 -28 -41 13 -13 78 18 129 64 l37 32 -6 -90
c-20 -278 -29 -651 -24 -1016 4 -222 9 -422 12 -444 l6 -40 -30 55 c-16 30
-51 107 -77 170 -53 128 -69 154 -80 126 -12 -31 83 -256 164 -388 38 -63 122
-238 136 -284 l6 -21 -72 19 c-78 20 -233 28 -284 15 l-31 -8 -6 88 c-11 147
-91 455 -121 466 -23 9 -24 -14 -5 -71 34 -100 78 -296 89 -396 l10 -99 -72
-66 c-139 -127 -213 -277 -213 -432 l0 -85 -47 -53 c-64 -74 -93 -131 -117
-236 -12 -49 -37 -122 -56 -161 -41 -85 -45 -110 -15 -94 28 15 78 126 105
235 29 114 50 157 109 221 36 39 47 47 57 37 17 -17 39 -17 39 0 0 7 -9 30
-20 52 -74 145 83 460 275 551 53 25 64 26 144 21 85 -6 225 -37 242 -54 29
-29 38 -248 14 -350 -32 -135 -117 -278 -185 -313 -21 -11 -71 -24 -112 -30
-131 -19 -138 -21 -138 -35 0 -8 3 -16 8 -18 7 -5 169 16 213 28 l26 7 -13
-78 c-22 -128 -37 -333 -29 -424 3 -47 19 -152 35 -235 43 -227 53 -319 47
-435 -7 -122 -18 -163 -81 -288 -33 -65 -46 -104 -46 -134 -1 -63 -25 -185
-49 -248 -34 -90 -73 -135 -153 -175 -85 -42 -129 -45 -163 -10 -29 28 -30 43
-9 138 29 127 79 198 157 223 36 12 35 28 -2 34 -40 7 -27 27 19 32 23 2 35 8
35 18 0 12 -24 16 -125 22 -225 12 -361 64 -520 196 -108 89 -152 143 -176
215 -36 109 2 280 111 496 60 121 65 141 35 141 -11 0 -20 3 -20 8 1 65 23
412 31 487 20 191 61 344 132 498 22 48 37 90 34 93 -14 14 -38 -8 -63 -57
-24 -48 -27 -51 -38 -33 -7 12 -11 65 -10 139 1 105 7 147 49 335 44 195 48
227 48 340 0 333 -204 1149 -397 1592 -121 277 -163 590 -153 1128 10 489 29
687 101 1025 39 185 51 258 72 431 7 56 52 122 114 163 82 56 55 67 -37 15
-23 -13 -44 -21 -46 -17 -5 10 -24 94 -31 143 -3 19 -10 114 -16 210 -27 450
-213 1474 -395 2175 -78 299 -121 545 -164 930 -40 357 -46 491 -46 970 0 518
5 586 60 855 62 308 88 511 135 1080 17 200 35 381 40 402 33 121 248 282 470
353 117 37 183 31 332 -29 200 -81 440 -233 482 -305 12 -22 22 -62 25 -105 5
-59 9 -71 25 -74 18 -4 19 1 13 71 -7 93 -30 140 -101 203 -68 61 -286 193
-403 244 -172 76 -249 85 -389 44 -115 -33 -212 -80 -309 -149 l-78 -56 6 338
c5 311 14 464 51 913 7 92 10 179 5 203 -4 23 -32 132 -63 242 -94 340 -128
516 -151 798 -23 275 -50 404 -169 809 -65 222 -73 261 -86 408 -13 161 -64
339 -113 391 -36 39 -37 5 -2 -77 46 -106 71 -208 79 -319 10 -140 24 -202
102 -474 l73 -253 -60 -262 c-34 -143 -93 -367 -131 -496 -118 -401 -119 -413
-128 -855 -4 -239 -11 -393 -19 -416 -24 -77 -68 -120 -133 -134 -20 -4 -26
-10 -21 -21 4 -12 16 -15 45 -12 l39 4 -6 -51 c-25 -204 -67 -373 -161 -660
-116 -353 -248 -653 -412 -943 -162 -288 -325 -767 -365 -1077 -15 -110 -29
-141 -71 -147 -28 -4 -27 -32 1 -36 31 -5 37 -46 30 -206 -7 -156 -42 -338
-151 -773 -41 -164 -95 -404 -121 -533 -86 -437 -102 -488 -162 -511 -62 -23
-83 28 -83 206 0 143 35 549 50 591 15 37 12 56 -6 52 -35 -7 -131 -318 -190
-618 -80 -401 -80 -401 -137 -425 -76 -32 -117 11 -117 123 0 74 46 528 65
646 28 170 43 251 53 276 10 27 6 50 -9 50 -5 0 -18 -19 -29 -42 -25 -56 -152
-404 -179 -491 -21 -69 -66 -283 -97 -465 -10 -56 -26 -116 -36 -133 -34 -56
-115 -65 -152 -16 -18 24 -21 42 -20 120 2 177 95 678 167 901 45 136 50 174
21 158 -45 -25 -253 -555 -314 -798 -27 -109 -48 -152 -95 -192 -43 -38 -83
-41 -120 -9 -23 20 -27 30 -26 83 0 115 50 317 171 689 163 504 227 767 191
789 -4 3 -23 -6 -42 -20 -31 -23 -122 -74 -133 -74 -2 0 -3 8 -2 17 0 10 -7
19 -16 21 -13 2 -18 -3 -18 -18 0 -11 -7 -23 -15 -25 -8 -3 -22 -7 -30 -10
-18 -5 -9 -35 12 -35 34 0 -15 -87 -87 -154 -66 -62 -140 -96 -207 -96 -89 0
-88 23 6 203 28 53 51 104 51 112 0 12 11 14 60 8 50 -5 60 -3 60 10 0 10 -14
18 -41 22 -22 4 -43 13 -46 20 -2 8 12 45 32 83 29 57 76 109 263 298 281 284
357 341 515 383 61 17 78 34 39 39 -13 2 -22 7 -20 10 2 4 18 37 35 73 41 83
80 201 148 452 72 261 88 340 195 957 205 1185 276 1453 500 1899 127 254 136
302 121 640 -14 315 -14 805 -1 966 16 186 37 309 100 585 59 257 70 315 136
735 92 593 172 848 325 1041 67 83 151 143 245 173 71 24 110 46 218 126 93
68 130 86 259 124 132 38 206 71 315 140 110 69 251 139 507 251 259 114 483
226 580 291 91 61 167 143 183 197 39 130 36 431 -8 795 -24 195 -80 541 -90
558 -5 6 -15 9 -24 6 -12 -5 -14 -14 -9 -39 l6 -32 -34 32 c-36 34 -69 42 -69
17 0 -8 9 -19 19 -25 11 -5 37 -31 57 -56 33 -40 40 -58 55 -140 17 -95 16
-95 -4 -77 -18 16 -63 79 -184 257 -88 128 -148 331 -141 472 4 78 20 110 51
99 8 -4 38 -52 66 -108 61 -124 114 -197 141 -197 28 0 26 8 -21 70 -88 117
-155 285 -184 460 -14 82 -16 138 -12 274 6 187 23 279 77 427 126 348 420
592 797 664 113 21 435 14 558 -14z m910 -24144 c36 -56 17 -145 -39 -182 -29
-19 -52 -11 -71 26 -27 52 -17 97 33 152 32 33 57 35 77 4z m-2763 -14 c50
-55 60 -100 33 -152 -22 -44 -52 -46 -92 -6 -29 29 -33 39 -33 87 0 92 42 124
92 71z m2558 -135 c-49 -8 -65 -2 -37 13 9 6 29 21 45 34 l27 24 5 -32 c5 -31
4 -32 -40 -39z m-2381 -5 c14 -9 -12 -12 -50 -7 -44 6 -45 7 -41 40 l4 33 42
-32 c22 -17 43 -33 45 -34z m2305 -29 c0 -5 -7 -30 -14 -56 -12 -42 -18 -48
-41 -48 -25 0 -69 38 -69 60 0 9 102 58 115 55 6 -1 10 -6 9 -11z m-2205 -25
c28 -12 51 -25 51 -29 0 -22 -44 -60 -69 -60 -23 0 -29 6 -39 43 -7 23 -15 48
-18 55 -8 18 16 15 75 -9z m2352 -5 c49 -52 16 -154 -50 -154 -30 0 -81 57
-81 90 0 76 82 117 131 64z m-2480 3 c45 -35 49 -85 12 -133 -34 -42 -69 -45
-104 -8 -65 70 18 198 92 141z m2184 -57 c15 -30 15 -32 -7 -50 -26 -22 -77
-26 -101 -7 -9 6 -19 24 -22 39 -6 25 -4 27 37 36 69 16 76 14 93 -18z m-1882
4 c35 -6 38 -9 32 -33 -9 -35 -24 -49 -61 -52 -19 -2 -40 4 -58 18 -27 21 -27
22 -11 53 13 25 21 31 38 26 12 -3 39 -9 60 -12z m1710 -11 c3 -5 7 -21 10
-38 5 -25 1 -34 -23 -53 l-30 -24 -28 33 c-31 37 -45 67 -36 80 6 11 101 12
107 2z m-1540 -13 c26 0 20 -23 -19 -72 l-36 -44 -28 26 c-21 20 -28 33 -24
51 12 51 13 52 52 45 20 -3 45 -6 55 -6z m1837 -45 c35 -18 50 -43 50 -83 0
-63 -109 -112 -129 -59 -5 12 -17 41 -26 64 -15 36 -16 45 -4 59 28 34 67 41
109 19z m-2132 -22 c25 -16 25 -16 -5 -98 -14 -38 -25 -51 -42 -53 -39 -6 -82
19 -97 55 -13 29 -12 37 1 64 18 34 69 61 100 52 11 -3 31 -12 43 -20z m1947
-19 c20 -8 51 -68 60 -117 9 -46 -11 -81 -59 -104 -61 -29 -78 -15 -101 80
-11 46 -18 92 -17 101 6 30 79 54 117 40z m-1760 -34 c11 -13 16 -29 12 -47
-16 -90 -32 -149 -41 -155 -41 -28 -136 29 -136 81 1 35 24 98 46 122 24 26
94 26 119 -1z"/>
<path d="M18170 25471 c0 -50 180 -156 319 -188 103 -23 356 -26 356 -3 0 12
-20 15 -110 17 -235 5 -418 64 -514 167 -29 31 -51 34 -51 7z"/>
<path d="M19628 25395 c-73 -48 -278 -95 -419 -95 -41 0 -72 -5 -85 -14 -18
-14 -18 -15 -1 -22 26 -10 193 2 299 21 139 24 258 77 266 118 5 23 -16 20
-60 -8z"/>
<path d="M18948 25153 c-40 -3 -58 -8 -58 -17 0 -26 93 -36 125 -13 16 13 14
40 -3 35 -4 -1 -33 -3 -64 -5z"/>
<path d="M18850 24895 c0 -22 45 -47 93 -52 49 -6 127 26 127 52 0 19 -27 19
-60 0 -14 -8 -38 -14 -55 -14 -16 0 -41 6 -55 14 -32 19 -50 19 -50 0z"/>
<path d="M18852 24619 c4 -28 62 -59 109 -59 40 0 102 36 107 63 5 23 -17 21
-48 -3 -33 -26 -90 -26 -123 0 -33 26 -49 25 -45 -1z"/>
<path d="M18890 24330 c0 -25 47 -50 93 -50 37 0 87 32 87 56 0 19 -8 18 -53
-5 -39 -20 -69 -18 -88 5 -17 20 -39 17 -39 -6z"/>
<path d="M18890 24080 c0 -21 45 -50 77 -50 31 1 103 38 103 55 0 19 -20 19
-56 0 -37 -19 -68 -19 -84 0 -18 21 -40 19 -40 -5z"/>
<path d="M18845 23870 c-18 -30 61 -74 121 -67 46 5 104 40 104 63 0 20 -28
17 -57 -6 -14 -11 -40 -20 -58 -20 -18 0 -44 9 -58 20 -28 22 -43 25 -52 10z"/>
<path d="M18844 23608 c-4 -6 8 -25 29 -45 29 -26 45 -33 78 -33 47 0 92 23
110 57 15 28 4 42 -19 25 -46 -33 -78 -52 -89 -52 -7 0 -28 14 -46 30 -37 32
-52 37 -63 18z"/>
<path d="M18846 23375 c-8 -22 57 -67 107 -72 33 -4 50 0 77 19 19 13 36 34
38 46 5 30 -18 28 -48 -3 -15 -16 -34 -25 -55 -25 -17 0 -46 11 -65 25 -39 29
-46 30 -54 10z"/>
<path d="M18850 23019 c0 -41 107 -63 174 -35 39 16 53 33 38 48 -6 6 -20 4
-40 -6 -38 -20 -99 -20 -132 -1 -34 19 -40 18 -40 -6z"/>
<path d="M20033 23020 c-18 -11 -46 -39 -64 -62 -64 -88 -176 -351 -193 -454
-12 -70 72 -1247 98 -1387 40 -205 134 -370 241 -422 26 -12 60 -19 97 -19
118 1 228 86 357 277 48 71 88 118 117 138 24 16 44 34 44 40 0 20 -29 20 -67
1 -45 -24 -83 -63 -185 -192 -176 -220 -289 -245 -427 -95 -71 78 -128 200
-147 312 -25 154 -52 457 -75 833 -29 479 -29 498 1 590 37 116 163 363 201
395 33 27 55 29 132 10 38 -10 37 19 -3 40 -40 21 -89 19 -127 -5z"/>
<path d="M17605 23020 c-31 -12 -45 -33 -35 -50 8 -13 13 -12 39 3 77 46 128
4 216 -177 83 -171 118 -281 117 -366 -2 -169 -88 -1168 -112 -1290 -25 -132
-84 -256 -158 -333 -121 -126 -209 -101 -436 126 -145 144 -225 207 -263 207
-34 0 -28 -27 10 -46 17 -9 109 -94 202 -188 199 -201 243 -231 345 -231 53 0
74 5 112 27 93 55 186 198 227 349 32 116 62 435 107 1142 19 300 17 322 -53
492 -75 185 -138 290 -197 326 -32 20 -86 24 -121 9z"/>
<path d="M16577 22944 c-21 -22 -5 -34 46 -34 138 0 243 -53 418 -210 161
-144 210 -174 356 -217 64 -19 132 -42 152 -53 61 -31 161 -111 186 -149 36
-55 55 -142 55 -258 0 -95 9 -129 26 -102 14 23 22 165 14 241 -11 93 -42 159
-102 214 -102 94 -185 134 -338 165 -129 26 -216 71 -317 163 -195 178 -269
218 -443 241 -25 4 -48 3 -53 -1z"/>
<path d="M21050 22939 c-73 -12 -181 -66 -255 -128 -236 -199 -297 -235 -458
-271 -114 -25 -189 -61 -272 -127 -117 -95 -148 -173 -143 -370 3 -106 5 -118
21 -118 16 0 18 12 20 135 3 168 20 214 109 294 75 68 156 108 287 140 162 40
199 62 325 185 61 60 138 127 170 150 74 51 167 81 252 81 57 0 64 2 64 20 0
23 -23 24 -120 9z"/>
<path d="M19974 22759 c-4 -7 -9 -53 -12 -103 -5 -99 6 -126 49 -126 23 0 119
86 119 106 0 25 -26 15 -69 -26 -23 -22 -46 -40 -50 -40 -16 0 -20 45 -10 112
6 37 8 72 4 78 -8 13 -22 13 -31 -1z"/>
<path d="M17747 22748 c-2 -7 0 -29 4 -48 12 -51 11 -128 -2 -136 -6 -3 -30
12 -53 35 -23 22 -47 41 -54 41 -25 0 -10 -39 28 -74 49 -44 85 -55 108 -32
32 32 17 226 -18 226 -4 0 -10 -6 -13 -12z"/>
<path d="M18845 22681 c-18 -29 47 -91 95 -91 42 0 130 59 130 87 0 20 -21 15
-69 -17 -56 -38 -84 -38 -111 0 -22 31 -35 37 -45 21z"/>
<path d="M18846 22224 c-14 -36 57 -94 104 -85 24 4 70 53 70 73 0 24 -27 23
-40 -2 -6 -11 -20 -25 -32 -31 -18 -10 -25 -7 -55 25 -39 41 -39 41 -47 20z"/>
<path d="M18846 21794 c-12 -32 37 -84 81 -84 31 0 96 60 92 84 -4 16 -9 14
-43 -13 -46 -37 -59 -38 -83 -8 -26 33 -40 39 -47 21z"/>
<path d="M18845 21420 c-8 -12 19 -70 46 -99 29 -31 73 -28 99 9 26 37 40 105
19 98 -7 -2 -23 -22 -34 -44 -27 -53 -53 -52 -83 4 -24 42 -36 50 -47 32z"/>
<path d="M18991 21048 c-6 -7 -21 -26 -35 -43 l-24 -30 -31 23 c-59 43 -85 13
-34 -40 32 -34 90 -39 116 -10 35 38 52 112 27 112 -5 0 -14 -6 -19 -12z"/>
<path d="M18974 20660 c-22 -81 -32 -87 -79 -50 -60 48 -77 16 -24 -45 24 -27
39 -35 64 -35 51 0 78 33 89 111 14 95 -24 110 -50 19z"/>
<path d="M18844 20185 c-9 -22 28 -79 58 -89 54 -19 118 21 118 74 0 33 -15
38 -46 15 -10 -8 -28 -14 -39 -14 -11 0 -29 6 -39 14 -25 19 -45 19 -52 0z"/>
<path d="M18844 19765 c-15 -38 42 -125 81 -125 23 0 77 56 73 77 -5 25 -25
27 -45 4 -24 -29 -29 -27 -58 19 -27 42 -42 50 -51 25z"/>
<path d="M18933 19351 c-34 -41 -59 -45 -84 -15 -13 16 -45 19 -54 4 -10 -17
27 -69 62 -85 54 -26 112 5 134 72 23 70 -9 83 -58 24z"/>
<path d="M18943 18995 c-37 -42 -52 -43 -83 -10 -45 48 -71 20 -27 -29 12 -15
37 -29 54 -32 29 -6 38 -1 73 34 27 26 38 45 34 56 -9 23 -17 20 -51 -19z"/>
<path d="M15665 18938 c-2 -7 -6 -49 -10 -93 -16 -202 -37 -268 -136 -428 -54
-87 -57 -97 -31 -97 22 0 137 185 164 266 21 61 54 323 45 348 -8 19 -26 21
-32 4z"/>
<path d="M21965 18863 c14 -163 34 -272 61 -325 49 -100 128 -228 140 -228 27
0 18 29 -38 123 -85 143 -97 180 -116 354 -15 136 -19 153 -35 153 -17 0 -18
-7 -12 -77z"/>
<path d="M16117 18804 c-4 -4 -7 -79 -7 -166 0 -87 -4 -158 -9 -158 -5 0 -33
11 -63 25 -30 14 -81 28 -114 31 -65 7 -144 -9 -144 -30 0 -9 24 -12 93 -12
84 1 98 -2 164 -33 66 -31 72 -36 68 -60 -2 -14 -7 -57 -10 -95 -8 -97 -28
-147 -144 -361 -55 -103 -101 -194 -101 -202 0 -8 7 -13 16 -11 27 5 233 395
253 478 19 76 29 226 27 414 -1 169 -6 202 -29 180z"/>
<path d="M21514 18795 c-10 -25 3 -480 16 -553 11 -65 60 -171 183 -399 53
-100 87 -138 87 -100 0 6 -52 116 -115 242 l-116 230 -9 104 c-6 58 -7 108 -3
111 5 4 36 19 71 34 73 32 157 43 202 27 18 -6 39 -7 47 -2 26 14 -11 39 -69
46 -58 7 -129 -6 -197 -36 -24 -10 -47 -19 -52 -19 -5 0 -10 73 -11 162 -2
118 -6 162 -15 166 -7 2 -16 -4 -19 -13z"/>
<path d="M18810 18654 c0 -29 58 -94 83 -94 46 0 107 56 107 98 0 25 -30 24
-61 -2 -38 -32 -40 -32 -77 -1 -38 32 -52 32 -52 -1z"/>
<path d="M18810 18318 c0 -34 34 -83 67 -97 39 -16 77 -1 103 41 40 65 8 95
-45 42 -20 -20 -28 -23 -45 -14 -11 6 -26 20 -33 30 -17 28 -47 26 -47 -2z"/>
<path d="M18810 17919 c0 -53 47 -98 104 -99 30 0 45 7 72 34 21 21 34 44 34
60 0 34 -23 34 -62 1 -16 -14 -33 -25 -37 -25 -5 0 -25 11 -45 25 -45 30 -66
32 -66 4z"/>
<path d="M18840 17570 c-24 -46 17 -100 76 -100 24 0 39 8 58 31 46 54 25 111
-27 76 -20 -13 -27 -13 -48 -1 -33 18 -47 17 -59 -6z"/>
<path d="M18854 17165 c-18 -13 -18 -14 1 -35 32 -35 74 -52 110 -46 36 7 49
19 59 54 9 28 -16 40 -47 23 -18 -9 -31 -9 -64 3 -34 12 -44 12 -59 1z"/>
<path d="M18592 16927 c-8 -9 -7 -21 4 -43 24 -45 51 -69 117 -105 105 -56
244 -51 372 13 65 33 145 99 145 119 0 28 -21 24 -110 -21 -193 -97 -355 -93
-473 10 -35 31 -47 37 -55 27z"/>
<path d="M19349 16678 c0 -2 -2 -41 -3 -88 -4 -106 -19 -165 -63 -258 -38 -77
-138 -195 -198 -232 -37 -23 -47 -50 -19 -50 27 0 112 69 165 132 100 120 149
254 149 407 0 74 -3 91 -15 91 -8 0 -15 -1 -16 -2z"/>
<path d="M18267 16663 c-13 -12 -7 -177 8 -241 35 -146 137 -295 259 -375 30
-20 43 -24 53 -15 10 8 -6 29 -75 97 -160 158 -210 284 -212 534 0 9 -24 9
-33 0z"/>
<path d="M19772 3817 c-64 -92 -136 -134 -218 -124 -54 6 -139 46 -204 98 -55
43 -70 48 -70 21 0 -10 21 -34 48 -53 179 -134 325 -142 433 -22 42 47 66 100
52 114 -8 8 -20 -3 -41 -34z"/>
<path d="M17734 3829 c-11 -19 68 -121 119 -153 62 -38 142 -46 217 -21 65 22
196 109 203 135 8 31 -18 25 -76 -19 -153 -116 -283 -121 -376 -15 -18 20 -37
47 -43 60 -12 25 -32 31 -44 13z"/>
<path d="M6690 27564 c-85 -11 -199 -37 -273 -65 -317 -115 -558 -432 -622
-819 -21 -121 -16 -362 10 -495 8 -44 18 -97 21 -117 l6 -37 -35 10 c-49 13
-84 -3 -103 -47 -35 -84 -27 -359 15 -495 11 -35 46 -104 77 -154 31 -49 70
-119 85 -153 18 -41 36 -66 49 -69 13 -4 23 -19 30 -47 59 -230 93 -310 190
-444 l60 -83 0 -139 c0 -76 5 -184 11 -241 l10 -103 -33 -25 c-18 -14 -64 -54
-103 -89 -86 -78 -219 -167 -328 -221 -45 -22 -244 -103 -443 -180 -303 -118
-402 -151 -625 -211 -145 -39 -309 -85 -364 -102 -352 -106 -574 -310 -673
-618 -46 -143 -113 -498 -137 -728 -28 -260 -14 -635 29 -800 7 -28 9 -61 4
-82 -20 -90 -49 -358 -63 -585 -46 -731 -53 -815 -81 -914 -20 -69 -68 -164
-187 -372 -130 -225 -202 -373 -242 -493 -41 -124 -75 -335 -150 -941 -95
-766 -144 -1048 -245 -1398 -67 -229 -123 -359 -197 -453 -34 -42 -49 -52
-100 -67 -94 -28 -176 -89 -334 -247 -166 -165 -275 -290 -411 -470 -119 -157
-163 -237 -179 -320 -15 -80 -17 -84 -79 -156 -53 -63 -63 -100 -33 -129 42
-42 118 -46 231 -10 135 43 208 110 302 280 18 33 40 68 49 79 16 18 110 71
116 64 1 -2 -32 -108 -75 -236 -43 -128 -80 -254 -82 -280 -5 -46 -47 -145
-211 -497 -90 -194 -117 -272 -117 -341 0 -68 15 -99 55 -119 58 -27 127 -13
172 36 12 13 88 162 169 332 81 169 149 305 151 303 2 -2 -21 -84 -51 -182
-106 -342 -175 -650 -156 -698 24 -63 152 -44 232 35 69 69 123 190 252 574
64 187 116 334 116 328 0 -47 -89 -423 -156 -653 -50 -170 -55 -241 -19 -280
22 -24 92 -27 134 -6 38 20 101 91 138 156 37 65 142 368 208 600 57 204 54
194 61 187 3 -3 -2 -28 -10 -57 -51 -172 -80 -577 -46 -645 21 -41 57 -57 102
-44 71 19 116 101 153 276 8 40 34 136 59 215 24 79 62 226 85 328 22 102 71
303 110 447 104 393 135 561 130 713 -2 42 2 84 8 96 7 11 21 90 33 175 42
305 88 464 199 679 41 80 104 204 142 277 150 294 322 810 463 1388 98 400
125 509 156 625 23 83 34 153 40 250 16 235 40 346 239 1073 72 263 131 482
132 485 1 18 22 -54 73 -254 95 -380 144 -641 171 -913 25 -260 55 -377 116
-454 27 -34 32 -50 44 -155 30 -250 15 -575 -33 -742 -11 -36 -40 -136 -66
-223 -83 -283 -111 -459 -146 -897 -37 -468 -64 -643 -157 -999 -31 -119 -66
-260 -79 -313 -79 -340 -97 -1137 -44 -1938 54 -801 126 -1233 371 -2210 49
-196 93 -389 98 -430 15 -113 45 -870 37 -939 -4 -33 -15 -104 -26 -158 -78
-402 -119 -927 -100 -1291 18 -375 33 -451 222 -1161 250 -943 348 -1367 348
-1507 0 -38 -11 -123 -25 -189 -39 -186 -33 -315 17 -387 10 -14 18 -33 18
-42 0 -9 -29 -67 -64 -129 -218 -383 -389 -787 -450 -1057 -4 -18 -31 -43 -91
-84 -154 -105 -227 -236 -180 -325 8 -16 27 -34 43 -40 27 -12 29 -16 25 -51
-12 -91 35 -170 102 -170 33 0 33 0 28 -39 -6 -43 18 -105 45 -117 9 -4 40
-10 67 -13 l50 -6 5 -45 c10 -82 41 -111 132 -125 43 -7 47 -9 53 -43 18 -96
87 -142 221 -150 145 -8 193 30 295 236 41 83 59 108 93 131 59 41 133 117
163 169 53 90 59 136 93 669 11 177 20 336 20 352 0 27 7 34 50 56 187 95 271
373 204 677 -17 76 -16 78 6 147 26 82 24 117 -13 276 -54 229 -94 674 -84
935 4 85 31 400 61 700 130 1287 133 1608 20 2186 l-35 182 20 79 c11 44 30
136 41 205 42 261 53 396 56 723 3 307 4 323 27 400 34 111 45 241 57 680 39
1440 51 1580 180 2165 33 146 68 314 78 373 19 106 32 144 32 96 0 -13 23
-147 50 -296 143 -779 159 -947 205 -2183 23 -613 33 -727 81 -872 12 -38 16
-113 18 -380 2 -236 8 -372 20 -468 20 -160 61 -395 81 -464 14 -46 13 -61
-15 -225 -109 -651 -107 -890 20 -2291 53 -580 56 -636 40 -885 -20 -313 -55
-565 -101 -733 -23 -84 -20 -124 16 -216 19 -46 21 -64 14 -84 -39 -102 -50
-294 -24 -416 30 -143 116 -268 212 -311 49 -21 45 0 63 -350 13 -247 37 -532
51 -593 22 -101 117 -228 216 -290 38 -23 51 -42 99 -139 93 -187 147 -233
275 -233 39 0 90 5 112 12 58 17 114 74 122 123 10 62 10 62 64 69 70 9 107
43 127 116 16 56 17 57 56 58 77 3 107 34 108 110 0 48 2 52 24 52 35 0 84 45
96 89 5 21 7 59 4 84 -6 40 -4 46 15 52 32 10 61 54 61 92 0 78 -63 170 -181
262 -66 53 -80 69 -89 104 -57 222 -298 787 -454 1067 l-57 102 28 52 c26 47
28 59 28 161 0 92 -6 131 -34 240 -29 113 -33 140 -28 211 12 164 112 583 313
1302 267 953 278 1013 278 1537 0 416 -24 684 -100 1090 -26 136 -26 147 -20
405 4 146 11 364 16 485 9 242 16 279 119 675 273 1054 392 2074 378 3257 -7
596 -18 696 -117 1088 -90 355 -124 551 -150 865 -36 444 -94 773 -208 1195
-69 251 -77 317 -77 605 0 316 6 366 51 422 63 79 91 200 119 508 22 249 93
616 193 995 31 122 37 136 44 110 5 -16 39 -140 77 -275 218 -771 276 -1013
291 -1200 17 -208 27 -270 65 -400 20 -69 54 -205 76 -303 168 -767 375 -1383
594 -1772 167 -297 224 -475 261 -820 8 -82 22 -163 29 -180 8 -19 15 -89 19
-190 6 -197 26 -295 136 -683 44 -156 98 -354 120 -440 21 -86 60 -215 85
-286 25 -71 57 -177 71 -235 28 -122 55 -176 103 -208 43 -29 66 -29 96 1 45
45 45 230 0 545 -14 91 -23 166 -21 168 1 2 18 -48 36 -109 46 -158 155 -494
191 -588 59 -153 158 -260 241 -260 53 0 74 13 88 56 15 45 8 98 -35 244 -43
150 -167 659 -163 671 5 14 126 -318 197 -538 66 -202 102 -285 158 -357 45
-58 91 -84 162 -93 64 -7 91 12 91 66 0 109 -86 488 -160 705 -16 49 -28 91
-26 94 6 6 155 -297 193 -393 70 -174 126 -235 215 -235 41 0 54 5 79 29 26
26 29 37 29 89 0 99 -45 221 -216 590 -56 119 -99 226 -105 260 -6 31 -26 102
-44 157 -18 55 -45 141 -60 190 -15 50 -35 107 -45 128 -21 44 -16 45 50 12
51 -26 61 -39 137 -170 63 -108 114 -160 196 -199 129 -61 238 -71 296 -29 43
32 39 63 -17 129 -62 75 -70 91 -83 161 -6 31 -21 78 -34 104 -74 146 -304
429 -535 659 -191 191 -267 248 -358 272 -103 26 -198 213 -287 566 -75 301
-119 579 -185 1172 -113 1021 -126 1080 -317 1420 -38 69 -106 190 -151 270
-45 80 -92 174 -105 210 -41 109 -75 347 -132 929 -44 447 -63 612 -76 678 -9
44 -7 67 10 135 51 210 53 533 5 873 -25 178 -93 492 -128 597 -95 279 -293
474 -593 581 -39 14 -217 64 -395 110 -290 77 -358 98 -668 217 -190 73 -380
150 -423 172 -147 73 -292 178 -429 309 l-67 64 9 180 c5 99 6 234 3 300 l-6
120 36 65 c36 66 74 177 98 283 9 44 19 63 40 78 17 12 45 54 68 102 22 45 58
111 80 146 77 122 102 229 100 439 -1 140 -14 198 -51 225 -23 17 -32 18 -68
9 -42 -10 -42 -10 -35 15 3 14 17 91 31 172 74 438 -6 734 -275 1014 -150 156
-329 256 -544 303 -70 16 -369 27 -447 18z m435 -57 c219 -48 403 -156 554
-324 263 -294 316 -566 212 -1083 -48 -235 -49 -239 -61 -464 -17 -297 -69
-596 -135 -771 -58 -155 -265 -417 -412 -522 -34 -24 -106 -63 -160 -86 l-98
-42 -150 0 -150 0 -97 42 c-159 68 -250 142 -387 313 -150 188 -188 265 -241
485 -42 171 -68 370 -80 595 -10 181 -26 296 -78 555 -11 56 -16 138 -16 270
0 175 2 198 26 288 81 295 258 538 476 650 97 51 228 92 337 106 99 14 376 6
460 -12z m-1300 -1521 c29 -19 41 -99 55 -353 6 -106 20 -252 30 -324 11 -73
18 -135 15 -137 -2 -3 -10 8 -17 24 -7 16 -43 78 -82 139 -38 60 -77 130 -87
155 -41 109 -51 401 -15 484 15 36 18 38 48 32 18 -3 42 -13 53 -20z m2201 -8
c23 -44 31 -259 14 -366 -17 -107 -42 -167 -112 -274 -34 -51 -70 -112 -80
-136 -11 -24 -22 -42 -24 -39 -3 2 4 67 15 143 11 77 25 222 31 324 5 102 15
220 21 263 11 75 13 79 48 97 51 27 68 25 87 -12z m-408 -1658 c-5 -296 -11
-323 -86 -462 -36 -65 -38 -86 -8 -75 19 8 116 204 116 236 0 21 14 11 98 -70
113 -109 219 -185 335 -239 45 -21 251 -104 457 -185 340 -132 407 -155 719
-241 369 -101 486 -145 598 -224 140 -98 261 -252 318 -404 43 -115 117 -471
151 -726 20 -149 26 -525 10 -685 l-8 -90 -18 36 c-25 48 -106 136 -142 155
-70 36 -81 -21 -12 -61 25 -15 64 -52 88 -85 37 -50 46 -72 64 -162 41 -196
72 -458 127 -1059 34 -379 46 -470 67 -539 20 -67 63 -156 177 -370 178 -334
235 -475 265 -650 9 -52 41 -284 71 -515 149 -1124 229 -1548 355 -1870 23
-57 58 -130 80 -164 l39 -60 -72 -3 c-56 -2 -72 -6 -72 -18 0 -12 18 -15 95
-16 199 -3 247 -31 511 -294 321 -320 549 -625 549 -733 0 -41 26 -95 76 -159
24 -31 44 -63 44 -71 0 -17 -42 -37 -79 -37 -37 0 -126 27 -181 55 -62 32
-107 81 -192 210 l-73 110 -85 43 c-85 42 -272 98 -290 87 -27 -17 -6 -33 62
-45 89 -16 107 -33 140 -132 l26 -75 -82 -6 c-90 -7 -193 4 -247 27 -45 19
-180 36 -280 36 -106 0 -229 -11 -229 -21 0 -11 35 -15 215 -29 83 -6 195 -20
250 -32 84 -17 123 -19 243 -15 l142 6 14 -27 c27 -54 78 -216 91 -291 16 -94
59 -203 182 -469 143 -310 165 -391 122 -446 -16 -20 -29 -26 -59 -26 -57 0
-104 46 -152 146 -43 92 -44 96 -24 88 21 -8 121 23 137 43 13 15 11 16 -16 9
-16 -3 -56 -9 -87 -12 l-56 -7 -64 134 -64 134 62 7 c59 6 132 33 120 45 -3 3
-35 0 -70 -7 -36 -7 -82 -9 -101 -6 -34 7 -39 13 -92 121 l-57 114 28 30 c15
16 23 31 18 35 -10 6 -142 -28 -174 -45 -29 -15 -16 -33 27 -39 l39 -5 31
-105 c18 -58 64 -206 104 -330 86 -267 133 -454 135 -530 l1 -55 -38 -3 c-86
-7 -164 63 -227 202 -36 78 -37 91 -11 76 28 -14 76 -13 116 4 19 8 35 17 35
20 0 2 -30 4 -67 4 -114 -1 -116 1 -163 154 -23 73 -45 145 -50 159 -8 26 -7
26 44 26 53 1 136 28 136 45 0 6 -10 7 -22 4 -13 -4 -57 -10 -99 -13 l-75 -6
-52 149 c-48 136 -51 150 -36 161 9 7 22 14 28 16 8 3 8 8 0 16 -17 18 -219
-18 -219 -39 0 -10 13 -16 42 -18 35 -3 44 -7 48 -25 3 -12 14 -65 25 -117 33
-150 116 -467 149 -564 51 -149 51 -209 0 -236 -62 -34 -182 84 -239 234 -9
23 -8 24 53 19 59 -5 117 7 117 24 0 5 -26 7 -57 5 -32 -2 -76 3 -98 11 l-40
14 -47 149 c-26 82 -48 152 -48 155 0 3 26 3 59 1 44 -3 69 1 106 17 27 12 46
24 43 27 -3 3 -33 0 -66 -7 -42 -9 -75 -10 -109 -3 l-48 9 -37 135 -38 135 21
16 c32 24 11 31 -103 37 -85 4 -98 3 -98 -11 0 -10 12 -18 35 -23 19 -3 38
-11 43 -18 11 -14 47 -192 67 -341 20 -139 21 -294 3 -332 -39 -83 -127 -2
-163 149 -19 82 -20 78 19 71 40 -6 86 3 86 17 0 6 -18 10 -41 10 -32 0 -68
10 -86 25 -3 2 -63 197 -63 205 0 3 18 4 40 2 49 -5 110 5 110 18 0 6 -19 10
-42 10 -58 0 -116 17 -127 38 -5 9 -23 82 -40 162 -17 80 -44 194 -60 255 -17
60 -29 111 -27 112 6 6 291 31 421 38 209 11 414 -21 455 -70 7 -8 17 -12 22
-9 13 8 -20 43 -64 65 -101 51 -342 76 -596 60 -92 -6 -188 -14 -213 -17 l-46
-6 -51 208 c-64 263 -69 287 -82 416 -10 99 -1 296 16 351 10 31 -22 19 -38
-15 l-15 -33 -11 55 c-6 30 -18 102 -27 160 -36 233 -100 439 -191 615 -28 55
-78 152 -110 215 -65 124 -130 285 -194 475 -94 278 -239 815 -325 1205 -20
91 -53 224 -74 295 -43 145 -57 224 -66 370 -11 173 -66 399 -239 987 -194
660 -196 670 -196 1148 0 312 -4 291 73 405 51 75 119 149 163 176 33 20 33
20 71 1 103 -53 118 -17 23 54 -36 27 -110 93 -166 146 -55 54 -104 95 -107
91 -11 -11 53 -119 104 -176 l49 -56 -43 -30 c-95 -65 -179 -186 -310 -446
-104 -207 -152 -282 -225 -358 -68 -69 -99 -88 -167 -96 -35 -4 -50 -10 -50
-21 0 -11 14 -16 54 -18 137 -8 268 120 421 410 l58 110 6 -208 c3 -115 10
-276 15 -359 l9 -150 -53 -190 c-113 -399 -182 -716 -210 -960 -33 -289 -44
-364 -65 -426 -37 -111 -80 -151 -175 -163 -44 -6 -56 -3 -105 25 -68 40 -253
219 -374 364 -198 235 -285 366 -361 540 -26 61 -81 173 -122 250 -102 191
-315 546 -331 552 -24 10 -27 -8 -6 -45 146 -256 369 -686 404 -778 33 -90 73
-165 149 -277 172 -257 429 -541 582 -645 67 -45 124 -58 194 -45 l58 10 -7
-86 c-15 -213 -18 -414 -7 -536 13 -146 26 -214 100 -498 75 -294 75 -278 6
-389 -81 -131 -179 -259 -268 -355 -43 -44 -93 -107 -112 -138 -38 -64 -78
-179 -94 -269 -14 -76 -14 -236 -1 -236 11 0 12 5 34 136 33 194 97 335 220
488 41 51 124 160 184 244 94 129 112 149 116 130 27 -117 69 -425 91 -653 31
-321 60 -481 159 -868 78 -302 91 -368 108 -557 17 -191 17 -1037 0 -1290 -76
-1111 -122 -1396 -412 -2575 l-92 -370 -9 -220 c-5 -121 -11 -344 -15 -495
l-6 -275 30 -160 c112 -587 140 -1192 76 -1650 -20 -145 -77 -385 -235 -990
-211 -807 -282 -1114 -295 -1279 -4 -49 1 -118 16 -220 27 -185 23 -242 -27
-337 -44 -84 -47 -73 91 -307 146 -248 211 -369 263 -486 89 -199 145 -376
159 -504 7 -68 22 -84 56 -63 15 10 26 7 61 -17 53 -37 129 -118 152 -162 21
-40 24 -93 6 -113 -7 -9 -26 -20 -44 -26 -30 -11 -33 -9 -86 47 -31 32 -71 69
-89 82 -19 12 -42 36 -52 52 -11 19 -20 26 -25 18 -4 -6 25 -43 72 -88 84 -84
144 -153 155 -180 26 -66 -15 -152 -73 -152 -22 0 -41 13 -79 53 -28 28 -76
78 -108 111 -31 32 -62 67 -68 78 -8 15 -13 17 -19 9 -4 -8 17 -35 58 -74 36
-34 73 -78 83 -97 9 -19 31 -51 49 -71 71 -79 50 -169 -38 -169 -64 0 -119 39
-177 125 -32 47 -71 90 -107 116 -30 23 -61 55 -67 70 -6 16 -16 29 -23 29
-28 0 -10 -28 66 -100 49 -47 93 -101 119 -145 22 -38 54 -83 72 -99 30 -26
32 -32 27 -73 -7 -68 -42 -98 -112 -98 -48 0 -58 4 -90 35 -20 19 -55 70 -78
113 -27 52 -65 101 -109 145 -37 36 -72 78 -79 94 -12 31 -29 37 -29 12 0 -23
36 -70 101 -134 38 -38 67 -79 93 -133 20 -43 52 -95 71 -116 91 -101 -7 -213
-187 -215 -52 -1 -73 3 -95 20 -41 30 -97 117 -140 217 -35 82 -42 91 -105
137 -80 58 -152 151 -173 223 -16 54 -35 308 -55 737 -7 135 -14 248 -16 251
-2 3 -32 20 -68 38 -131 64 -205 220 -206 430 0 92 17 211 30 211 5 0 17 -13
26 -30 22 -36 43 -45 62 -26 13 12 9 24 -31 88 -96 154 -100 182 -53 383 48
213 78 541 78 865 0 188 -7 283 -56 760 -110 1078 -127 1464 -81 1830 18 147
56 340 91 463 23 83 24 90 10 132 -70 205 -139 898 -110 1108 l7 46 44 -60
c49 -67 68 -79 90 -56 14 14 10 21 -36 78 -61 77 -133 220 -155 309 -28 121
-47 399 -76 1135 -32 807 -60 1106 -160 1675 -71 407 -95 592 -103 775 -2 57
-3 60 -27 60 l-25 0 -8 -145 c-10 -195 -34 -347 -111 -715 -110 -525 -132
-743 -156 -1515 -27 -902 -41 -1161 -66 -1270 -22 -90 -103 -254 -159 -319
-49 -57 -54 -84 -18 -89 18 -3 33 11 70 63 l48 65 3 -212 c4 -310 -37 -688
-98 -917 l-21 -76 25 -105 c74 -312 91 -493 91 -950 0 -421 1 -412 -81 -1299
-60 -657 -65 -795 -39 -1118 21 -257 41 -408 72 -538 37 -150 36 -194 -4 -276
-18 -36 -49 -87 -68 -113 -38 -48 -42 -78 -13 -84 12 -2 27 12 47 43 l30 47
10 -39 c38 -136 39 -301 1 -415 -39 -117 -131 -218 -213 -235 -16 -3 -30 -11
-32 -17 -2 -6 -9 -126 -15 -266 -15 -364 -37 -647 -54 -702 -8 -26 -25 -67
-40 -91 -27 -48 -131 -149 -176 -172 -21 -11 -42 -44 -87 -137 -92 -191 -134
-226 -257 -216 -105 9 -176 59 -190 134 -6 31 -3 40 28 74 20 22 54 77 77 122
27 53 64 106 104 148 91 96 116 140 80 140 -9 0 -15 -9 -15 -22 0 -13 -27 -48
-72 -93 -48 -46 -88 -98 -117 -150 -25 -44 -58 -95 -75 -112 -26 -29 -36 -33
-82 -33 -57 0 -94 22 -119 70 -23 44 -19 56 30 106 25 25 57 69 71 97 16 32
59 83 110 132 46 45 84 86 84 93 0 23 -25 12 -38 -17 -7 -15 -39 -49 -72 -74
-34 -27 -78 -75 -104 -114 -49 -72 -113 -123 -156 -123 -43 0 -89 20 -95 41
-11 34 5 96 32 120 14 13 34 42 45 64 11 22 49 68 84 102 60 58 77 83 55 83
-5 0 -12 -8 -16 -18 -3 -11 -23 -33 -45 -51 -22 -18 -58 -57 -81 -87 -42 -57
-90 -94 -122 -94 -33 0 -67 45 -67 89 0 40 26 121 39 121 3 0 19 20 34 45 16
24 51 61 78 81 55 40 87 84 60 84 -5 0 -11 -9 -14 -19 -2 -11 -27 -36 -55 -55
-27 -20 -67 -57 -87 -82 -32 -39 -41 -45 -64 -39 -40 10 -61 34 -61 71 0 45
64 136 141 200 53 44 65 50 77 38 32 -32 48 -8 56 83 15 176 175 548 432 1005
66 117 98 183 98 205 0 18 -12 48 -30 74 -28 41 -29 46 -29 153 1 77 8 145 24
221 46 215 24 325 -318 1584 -229 840 -245 935 -245 1416 0 410 29 715 102
1085 24 122 27 156 27 360 0 124 -4 347 -9 495 -9 311 -18 361 -136 835 -186
746 -273 1258 -335 1970 -64 739 -72 1594 -20 1947 8 51 39 191 69 312 95 377
132 582 156 846 18 201 39 347 75 527 20 95 38 181 41 191 4 13 20 -5 61 -70
90 -144 163 -240 266 -351 79 -85 107 -124 147 -204 50 -99 89 -212 110 -320
10 -52 14 -58 36 -58 19 0 24 5 24 26 0 38 -62 216 -113 325 -59 127 -99 188
-232 354 -61 77 -151 192 -198 257 l-86 116 64 279 c95 407 100 449 99 823
l-1 315 116 0 c88 0 129 5 171 19 130 44 242 117 351 225 131 132 217 266 344
540 87 186 191 384 310 591 94 162 115 204 165 330 70 177 106 224 156 201 26
-11 39 -50 49 -151 9 -77 31 -137 56 -150 50 -27 123 6 148 67 6 16 22 79 36
140 30 140 46 173 83 173 45 0 101 20 122 42 38 41 15 153 -40 203 -32 29 -36
8 -9 -43 41 -74 44 -98 15 -127 -19 -19 -36 -25 -69 -25 -83 0 -113 -47 -142
-217 -18 -110 -37 -157 -70 -179 -55 -36 -87 6 -104 141 -18 136 -59 186 -126
154 -42 -20 -78 -78 -135 -221 -32 -77 -93 -197 -157 -305 -146 -246 -258
-452 -351 -644 -90 -184 -154 -288 -251 -403 -200 -237 -495 -362 -667 -280
-76 36 -115 159 -144 449 -36 350 -100 666 -234 1139 l-45 158 10 307 c14 422
8 402 82 256 111 -216 199 -324 302 -371 57 -26 139 -34 157 -16 16 16 -1 32
-33 32 -113 0 -225 127 -391 443 -142 270 -210 367 -308 438 l-59 42 49 55
c49 55 117 169 106 179 -3 3 -50 -36 -103 -88 -54 -52 -129 -116 -166 -143
-37 -28 -67 -55 -67 -62 0 -25 21 -25 77 0 31 15 64 24 74 21 32 -10 157 -153
203 -232 l46 -78 -1 -305 c0 -381 -12 -502 -69 -695 -17 -60 -79 -267 -136
-459 -166 -555 -234 -833 -234 -965 0 -92 -23 -224 -64 -366 -19 -66 -56 -214
-81 -330 -170 -770 -347 -1334 -522 -1665 -205 -386 -263 -550 -323 -920 -10
-57 -15 -70 -21 -54 -10 28 -28 39 -41 26 -7 -7 -3 -37 11 -93 28 -109 28
-284 2 -441 -22 -127 -107 -468 -120 -481 -4 -4 -62 -1 -127 7 -426 56 -700
36 -801 -57 -41 -37 -16 -90 25 -54 84 73 322 103 687 85 110 -5 201 -11 204
-13 2 -2 -19 -87 -47 -187 -28 -101 -54 -199 -58 -218 -3 -19 -15 -63 -26 -97
-17 -58 -21 -63 -56 -73 -20 -5 -58 -10 -84 -10 -27 0 -48 -4 -48 -10 0 -13
61 -23 110 -18 22 2 40 1 40 -2 0 -3 -16 -52 -34 -110 -32 -99 -36 -106 -68
-117 -18 -6 -44 -9 -57 -6 -17 4 -22 2 -19 -8 3 -9 23 -15 52 -17 l48 -3 -7
-36 c-19 -100 -84 -212 -118 -201 -30 10 -38 52 -34 178 3 102 35 399 53 497
3 17 15 26 49 34 69 17 59 39 -17 38 -125 -1 -188 -22 -140 -45 19 -9 18 -15
-21 -146 l-40 -138 -35 -6 c-34 -7 -117 0 -159 12 -40 11 -25 -13 18 -30 44
-18 111 -23 147 -12 20 7 21 5 13 -16 -5 -13 -27 -83 -50 -156 -40 -128 -44
-134 -76 -148 -19 -8 -63 -14 -97 -14 -59 -1 -62 -2 -43 -16 15 -11 38 -14 87
-12 78 3 77 7 26 -95 -35 -71 -92 -136 -135 -154 -44 -18 -59 -17 -83 7 -28
28 -26 88 5 191 42 139 125 446 156 579 16 69 32 133 35 142 3 12 18 18 47 20
29 2 42 8 42 18 0 14 -22 19 -182 44 -49 7 -59 -11 -22 -36 l22 -14 -53 -144
c-30 -80 -56 -148 -59 -152 -6 -7 -127 7 -165 18 -13 4 -17 2 -14 -7 6 -19 96
-50 136 -46 17 2 32 2 32 0 0 -7 -82 -281 -90 -300 -12 -28 -79 -47 -137 -38
-26 4 -43 2 -43 -4 0 -16 70 -34 116 -28 24 2 44 2 44 0 0 -3 -18 -44 -40 -92
-60 -128 -120 -181 -203 -181 -58 0 -61 14 -37 142 40 213 85 371 196 695 66
192 66 192 98 195 55 5 36 30 -48 64 -43 18 -85 30 -93 27 -22 -8 -11 -35 23
-58 l31 -21 -61 -112 c-70 -129 -79 -134 -194 -113 -35 7 -67 10 -70 7 -11
-12 86 -46 131 -46 26 0 47 -2 47 -5 0 -2 -22 -46 -49 -97 -27 -51 -54 -110
-61 -132 l-12 -39 -62 6 c-33 3 -71 9 -83 13 -13 3 -23 2 -23 -3 0 -13 63 -42
110 -49 22 -4 40 -12 40 -19 0 -28 -73 -156 -106 -184 -45 -40 -94 -42 -131
-5 -23 23 -25 30 -19 77 12 86 31 136 255 652 33 77 61 151 61 165 0 35 15 87
61 221 l41 116 152 -5 c119 -4 166 -1 216 11 63 16 305 44 424 49 33 2 61 8
63 14 6 18 -232 27 -358 15 -59 -6 -128 -19 -155 -29 -62 -24 -167 -35 -256
-26 -69 7 -69 7 -63 33 4 14 21 55 38 91 l32 65 79 20 c74 19 100 35 78 49
-13 8 -165 -30 -242 -60 -99 -39 -139 -71 -197 -159 -112 -173 -156 -216 -262
-256 -84 -32 -160 -36 -191 -11 l-24 20 29 37 c72 90 85 115 100 186 20 92 62
168 177 317 140 180 245 297 402 450 224 216 296 255 476 256 107 1 125 7 110
37 -9 15 -22 19 -65 19 -30 0 -55 3 -55 6 0 3 8 18 19 32 153 217 287 790 456
1942 25 173 60 410 77 525 46 315 76 397 304 826 178 336 186 366 199 779 22
668 67 1051 146 1215 22 47 47 77 119 139 65 57 90 86 90 103 0 18 -6 23 -24
23 -44 0 -214 -199 -241 -281 -6 -19 -10 -7 -23 56 -23 121 -22 598 1 765 23
162 60 349 103 529 77 322 220 513 481 645 99 50 171 72 527 166 279 73 344
95 682 225 205 79 404 160 442 179 118 59 253 157 349 251 l92 91 11 -44 c6
-24 31 -84 55 -133 34 -67 50 -89 65 -89 30 0 25 21 -30 133 -61 125 -79 217
-87 442 l-6 160 84 -81 c101 -98 178 -149 301 -200 l93 -39 165 0 165 0 101
46 c55 25 122 60 150 79 72 49 177 153 253 250 59 75 66 82 70 60 2 -14 1
-144 -1 -290z"/>
<path d="M6384 26200 c-136 -15 -320 -59 -244 -59 14 -1 79 6 145 14 209 25
354 16 437 -26 44 -23 49 -23 42 -5 -10 25 -100 66 -170 76 -77 11 -106 11
-210 0z"/>
<path d="M7196 26199 c-62 -9 -136 -40 -157 -65 -20 -24 -6 -25 40 -2 24 12
81 26 127 32 81 10 122 8 424 -20 77 -7 45 10 -55 30 -77 15 -270 37 -304 35
-9 -1 -43 -5 -75 -10z"/>
<path d="M6361 25954 c-66 -18 -173 -73 -165 -86 3 -5 8 -7 11 -4 3 3 26 -12
50 -34 76 -66 125 -85 223 -84 97 1 168 25 215 74 34 35 29 50 -26 90 -80 58
-196 74 -308 44z m231 -29 c24 -9 60 -29 79 -45 l34 -30 -34 -30 c-74 -64
-224 -84 -312 -41 -57 27 -133 91 -122 102 4 4 42 19 83 33 89 30 201 35 272
11z"/>
<path d="M7224 25952 c-55 -19 -134 -76 -134 -96 0 -16 47 -60 85 -79 48 -24
144 -40 198 -33 64 9 125 38 180 87 25 21 48 35 52 31 4 -4 6 0 3 8 -6 21 -94
67 -163 85 -77 20 -158 19 -221 -3z m221 -23 c22 -6 62 -20 88 -31 46 -20 47
-21 30 -41 -58 -64 -182 -113 -258 -102 -71 11 -130 34 -164 65 -29 27 -31 33
-19 47 7 9 40 29 73 45 49 23 73 28 135 28 41 0 93 -5 115 -11z"/>
<path d="M6788 25620 c-7 -110 -15 -133 -69 -217 -34 -51 -40 -68 -37 -104 2
-24 9 -44 16 -47 11 -3 12 0 3 16 -18 34 -13 56 33 128 51 80 69 149 64 249
l-3 70 -7 -95z"/>
<path d="M7037 25663 c10 -114 34 -190 80 -262 41 -64 45 -77 40 -114 -5 -38
-4 -40 9 -23 8 11 14 26 14 33 0 22 -27 80 -60 128 -34 49 -70 174 -70 242 0
23 -4 43 -9 43 -5 0 -7 -21 -4 -47z"/>
<path d="M7075 25258 c11 -6 23 -16 27 -22 4 -6 11 -7 15 -2 10 9 -25 36 -46
36 -12 -1 -11 -3 4 -12z"/>
<path d="M6755 25240 c-4 -6 6 -7 25 -3 23 4 45 -1 84 -21 60 -30 86 -29 132
10 l29 24 -45 -20 c-57 -25 -72 -25 -120 0 -42 21 -95 26 -105 10z"/>
<path d="M6893 25065 c5 -15 70 -18 90 -3 15 11 10 13 -38 13 -32 0 -54 -4
-52 -10z"/>
<path d="M6630 24920 c-26 -6 -14 -8 50 -9 51 0 113 -9 155 -21 84 -24 126
-25 186 -5 24 8 89 19 144 24 l100 8 -106 2 c-71 1 -123 -4 -159 -15 -50 -15
-58 -15 -141 5 -88 21 -164 25 -229 11z"/>
<path d="M6800 24770 c0 -11 62 -24 115 -24 53 0 115 13 115 24 0 4 -52 8
-115 8 -63 1 -115 -3 -115 -8z"/>
<path d="M8093 23504 c-3 -8 3 -27 14 -42 30 -41 53 -89 53 -111 0 -29 -32
-42 -120 -48 -91 -7 -165 8 -216 44 -20 13 -39 21 -42 18 -13 -13 17 -41 74
-70 54 -28 67 -30 164 -30 145 0 190 21 190 90 0 32 -34 101 -68 138 -29 31
-40 34 -49 11z"/>
<path d="M5717 23451 c-69 -77 -70 -158 -2 -190 40 -19 157 -26 230 -12 73 14
149 58 153 89 4 28 5 28 -58 -5 -43 -22 -69 -28 -144 -31 -51 -2 -110 1 -133
7 -36 10 -43 16 -43 37 0 13 11 47 25 74 41 81 29 94 -28 31z"/>
<path d="M7398 23353 c-45 -47 -98 -120 -98 -135 0 -22 33 -2 82 50 72 76 102
132 68 132 -3 0 -26 -21 -52 -47z"/>
<path d="M6704 23325 c-8 -20 29 -127 69 -200 41 -74 92 -105 174 -105 105 0
144 34 187 161 35 105 42 149 24 149 -9 0 -20 -18 -27 -42 -24 -81 -78 -186
-105 -203 -20 -13 -41 -16 -86 -13 -79 6 -105 31 -171 165 -28 57 -53 103 -55
103 -3 0 -7 -7 -10 -15z"/>
<path d="M6385 23310 c-12 -20 43 -79 188 -199 13 -11 20 -12 29 -3 8 8 -6 29
-56 80 -77 80 -152 137 -161 122z"/>
<path d="M8533 23076 c-66 -42 -153 -61 -237 -52 -55 5 -65 4 -70 -11 -14 -35
21 -46 155 -47 57 -1 57 -1 90 -51 57 -83 139 -122 147 -68 2 15 -4 23 -20 28
-54 17 -129 125 -86 125 6 0 33 14 60 31 37 24 48 37 46 53 -4 30 -26 28 -85
-8z"/>
<path d="M5272 23063 c3 -16 73 -76 99 -85 20 -7 -31 -89 -68 -113 -41 -26
-44 -50 -5 -40 43 10 70 32 104 84 l32 49 56 -5 c64 -5 145 16 145 37 0 11
-19 16 -80 21 -88 6 -151 21 -207 50 -47 24 -81 25 -76 2z"/>
<path d="M6286 22921 c-4 -5 15 -25 41 -44 64 -47 170 -158 183 -192 8 -22 7
-35 -9 -65 -11 -21 -17 -41 -14 -44 15 -15 44 -3 58 24 45 87 -16 187 -179
292 -63 40 -71 43 -80 29z"/>
<path d="M7482 22897 c-31 -32 -41 -57 -23 -57 15 0 72 70 66 81 -8 12 -7 13
-43 -24z"/>
<path d="M7291 22829 c-69 -73 -84 -167 -33 -205 36 -27 45 -7 12 26 -32 32
-22 77 33 152 27 36 18 59 -12 27z"/>
<path d="M7285 22445 c-5 -2 -22 -6 -38 -9 -66 -15 -87 -84 -44 -147 31 -47
107 -103 120 -90 8 8 0 22 -24 49 -85 89 -91 124 -23 153 25 11 44 25 41 32
-4 12 -17 17 -32 12z"/>
<path d="M6692 22335 c-26 -97 -68 -123 -155 -98 -27 8 -51 12 -54 9 -18 -17
55 -56 106 -56 71 0 117 51 128 139 7 64 -9 67 -25 6z"/>
<path d="M6482 22063 c-19 -3 -32 -9 -29 -16 2 -8 30 -10 84 -8 52 2 83 -1 88
-9 10 -17 -19 -55 -84 -107 -33 -26 -60 -51 -60 -55 -3 -34 116 51 157 112 27
40 27 45 2 70 -20 20 -67 24 -158 13z"/>
<path d="M7220 22020 c0 -40 27 -103 40 -95 13 8 13 66 0 99 -14 37 -40 34
-40 -4z"/>
<path d="M6547 21704 c-13 -13 4 -24 28 -18 28 7 65 -11 65 -32 0 -28 -38 -89
-99 -159 -34 -38 -61 -74 -61 -78 0 -40 124 95 167 182 25 49 25 56 12 80 -12
21 -23 27 -60 29 -24 2 -48 0 -52 -4z"/>
<path d="M7263 21684 c-3 -9 -3 -48 0 -89 8 -110 54 -185 114 -185 29 0 29 11
2 36 -33 30 -47 66 -64 159 -8 48 -15 89 -15 91 0 12 -32 1 -37 -12z"/>
<path d="M7321 21264 c-12 -15 -21 -30 -21 -35 0 -35 65 -139 86 -139 24 0 15
37 -18 85 -43 61 -33 79 46 83 78 4 70 26 -11 30 -56 3 -63 1 -82 -24z"/>
<path d="M6530 21270 c0 -5 9 -14 20 -20 31 -17 53 -67 45 -106 -5 -27 -3 -34
10 -34 20 0 21 80 0 120 -20 39 -75 68 -75 40z"/>
<path d="M8274 21255 c-64 -32 -79 -55 -64 -100 33 -100 149 -113 249 -30 42
36 63 82 49 108 -27 51 -153 63 -234 22z"/>
<path d="M5407 21253 c-48 -20 -57 -50 -27 -98 23 -38 87 -80 144 -96 68 -19
146 42 146 113 0 73 -161 123 -263 81z"/>
<path d="M6692 20957 c-17 -20 -52 -100 -52 -119 0 -10 7 -18 15 -18 9 0 15 9
15 23 0 12 11 42 25 66 14 23 25 47 25 52 0 13 -16 11 -28 -4z"/>
<path d="M10360 19534 c0 -363 -27 -610 -71 -646 -54 -45 -210 -59 -388 -33
-67 9 -125 15 -128 11 -8 -7 -1 -9 147 -40 154 -33 265 -34 329 -6 23 11 75
51 115 89 39 38 91 81 116 95 33 19 39 26 24 26 -23 0 -81 -36 -128 -79 l-29
-26 7 25 c41 151 59 495 37 687 -20 170 -31 134 -31 -103z"/>
<path d="M3521 19623 c-41 -212 -39 -541 5 -686 4 -13 -13 -4 -55 27 -62 45
-98 63 -108 52 -3 -3 6 -10 21 -16 14 -5 64 -45 109 -88 46 -43 101 -87 123
-97 66 -33 176 -32 346 1 82 16 148 32 148 37 0 10 -15 9 -137 -9 -192 -29
-376 -5 -401 52 -26 56 -34 167 -33 439 0 153 4 294 7 312 4 19 2 33 -4 33 -5
0 -14 -26 -21 -57z"/>
<path d="M7015 17963 c-22 -21 -35 -57 -35 -94 0 -42 12 -35 40 24 24 50 26
52 63 50 40 -3 49 10 18 27 -29 15 -67 12 -86 -7z"/>
<path d="M6430 15966 c0 -16 79 -45 210 -75 272 -63 593 -50 857 33 137 44
121 69 -23 37 -327 -73 -762 -66 -1026 15 -12 3 -18 0 -18 -10z"/>
<path d="M10975 15873 c32 -79 26 -130 -23 -175 -38 -36 -82 -56 -165 -77 -74
-19 -101 -41 -79 -63 10 -10 26 -8 80 6 158 42 242 118 242 218 0 55 -23 108
-46 108 -11 0 -14 -5 -9 -17z"/>
<path d="M2863 15853 c-24 -37 -23 -119 3 -163 30 -52 96 -97 185 -125 94 -29
115 -31 123 -8 9 24 -3 32 -73 49 -177 41 -258 133 -206 233 23 46 -3 58 -32
14z"/>
<path d="M11095 15800 c-11 -17 4 -48 36 -75 34 -28 77 -33 85 -10 8 19 -13
45 -35 45 -10 0 -28 11 -41 25 -26 27 -35 30 -45 15z"/>
<path d="M2738 15776 c-9 -13 -31 -26 -48 -30 -26 -5 -31 -10 -28 -28 7 -49
82 -27 113 32 26 50 -5 70 -37 26z"/>
<path d="M6234 15646 c-3 -8 25 -58 63 -113 38 -54 140 -208 228 -343 182
-282 285 -430 297 -430 17 0 7 26 -48 124 -197 350 -334 567 -447 704 -59 71
-82 86 -93 58z"/>
<path d="M7562 15598 c-80 -102 -143 -202 -262 -414 -62 -109 -142 -244 -179
-299 -36 -55 -67 -106 -69 -112 -6 -21 28 -14 49 10 44 49 173 253 282 443
123 216 206 351 237 392 24 29 25 42 6 42 -8 0 -36 -28 -64 -62z"/>
<path d="M11126 15208 c-3 -7 -7 -47 -10 -88 -13 -180 -66 -294 -181 -390 -26
-21 -27 -25 -12 -28 26 -5 92 41 128 91 50 67 90 161 107 250 l17 83 80 -69
c150 -130 292 -211 372 -212 59 0 58 18 -1 32 -108 27 -214 100 -381 264 -76
75 -111 94 -119 67z"/>
<path d="M2616 15114 c-163 -156 -280 -235 -375 -250 -27 -4 -41 -12 -41 -22
0 -11 10 -14 49 -10 92 9 232 90 379 218 37 33 70 60 75 60 4 0 7 -12 7 -28 0
-41 37 -167 65 -223 30 -58 76 -112 129 -151 73 -53 78 -26 8 37 -87 78 -141
210 -151 370 -8 123 -17 122 -145 -1z"/>
<path d="M8456 10403 c-4 -5 -14 -23 -22 -41 -14 -34 -57 -59 -120 -69 -32 -5
-50 -26 -38 -44 3 -5 24 -9 46 -9 l41 0 -5 -98 c-5 -98 -14 -129 -51 -169 -23
-25 -17 -53 12 -53 25 0 68 51 81 98 5 20 10 82 10 136 l0 99 39 36 c40 37 58
78 47 106 -6 16 -28 20 -40 8z"/>
<path d="M5387 10393 c-4 -3 -7 -20 -7 -36 0 -21 11 -41 42 -71 l42 -41 -2
-75 c-6 -141 37 -260 93 -260 29 0 33 24 9 51 -29 32 -43 92 -44 183 l0 89 28
-6 c34 -7 55 5 50 28 -2 12 -20 22 -58 32 -62 16 -87 35 -107 81 -12 30 -31
40 -46 25z"/>
<path d="M7594 10306 c-12 -32 129 -432 181 -516 12 -19 25 -57 29 -85 9 -59
36 -124 59 -144 35 -28 64 13 33 48 -16 19 -38 82 -31 89 2 3 53 0 112 -6 91
-9 110 -9 123 4 26 26 -7 40 -123 52 -98 11 -110 14 -132 39 -33 38 -104 208
-160 386 -39 123 -50 147 -66 147 -11 0 -22 -6 -25 -14z"/>
<path d="M6235 10298 c-2 -7 -29 -88 -59 -179 -59 -183 -121 -323 -154 -353
-16 -14 -48 -21 -124 -29 -106 -10 -136 -22 -124 -52 5 -14 15 -16 59 -11 182
20 177 21 177 -4 0 -12 -10 -39 -21 -60 -22 -39 -20 -70 4 -70 32 0 76 83 77
146 0 17 22 74 49 127 52 101 175 461 167 484 -7 17 -45 17 -51 1z"/>
<path d="M8066 8979 c-6 -26 -83 -1033 -116 -1514 -26 -367 -37 -715 -23 -715
6 0 13 64 17 163 13 314 48 820 112 1626 23 290 31 448 25 454 -6 6 -12 2 -15
-14z"/>
<path d="M5790 8948 c0 -18 13 -199 30 -403 58 -726 105 -1427 113 -1685 2
-58 7 -107 13 -110 23 -13 12 280 -42 1020 -30 419 -81 1085 -90 1158 -6 57
-24 72 -24 20z"/>
<path d="M36117 22833 c-4 -3 -7 -19 -7 -35 0 -93 -152 -260 -367 -403 -71
-47 -92 -75 -55 -75 10 0 52 23 93 51 240 165 369 315 369 426 0 41 -14 56
-33 36z"/>
<path d="M27437 22814 c-32 -32 26 -165 114 -259 98 -104 325 -275 348 -260
20 11 12 30 -20 49 -74 43 -230 169 -292 235 -73 77 -105 131 -115 194 -7 39
-21 55 -35 41z"/>
<path d="M36871 22677 c-12 -12 -14 -138 -3 -202 5 -25 13 -41 23 -43 15 -3
16 12 15 122 -1 124 -8 150 -35 123z"/>
<path d="M26677 22654 c-3 -3 -2 -17 4 -30 5 -15 5 -60 -1 -117 -9 -92 -3
-124 21 -100 16 16 33 208 19 232 -10 20 -30 27 -43 15z"/>
<path d="M33815 20874 c-45 -24 -55 -42 -55 -98 0 -74 6 -79 102 -88 119 -10
118 -11 118 80 0 104 -13 122 -83 122 -29 -1 -65 -8 -82 -16z"/>
<path d="M29625 20850 c-17 -18 -20 -36 -20 -104 l0 -81 95 2 c108 3 125 13
124 71 0 87 -32 119 -127 129 -45 4 -55 2 -72 -17z"/>
<path d="M35451 17080 c-147 -31 -203 -62 -427 -235 -340 -265 -460 -380 -511
-491 -34 -75 -46 -200 -40 -410 3 -105 1 -212 -5 -255 -15 -109 -15 -124 2
-124 33 0 43 87 41 339 -2 255 9 378 39 436 50 98 184 225 489 463 205 160
232 177 337 213 65 22 102 28 211 32 189 7 375 -25 575 -98 81 -30 98 -31 98
-5 0 21 -137 69 -315 111 -90 21 -141 27 -280 29 -93 2 -190 0 -214 -5z"/>
<path d="M27785 17059 c-136 -17 -430 -100 -459 -129 -7 -7 -6 -14 1 -21 8 -8
45 0 134 29 201 66 311 85 484 86 238 1 320 -29 540 -199 319 -246 487 -400
537 -491 40 -74 48 -144 49 -428 1 -280 10 -358 43 -364 16 -4 18 1 12 35 -4
21 -11 180 -15 353 -6 246 -12 326 -24 365 -23 70 -107 175 -218 273 -105 93
-452 365 -514 404 -131 82 -347 115 -570 87z"/>
<path d="M35297 15803 c-3 -5 -14 -47 -24 -93 -13 -64 -18 -127 -18 -250 1
-146 3 -173 23 -230 30 -85 86 -170 112 -170 26 0 25 14 -4 53 -90 120 -118
312 -79 537 20 117 21 152 6 157 -6 2 -13 0 -16 -4z"/>
<path d="M28250 15771 c0 -6 7 -40 16 -77 35 -154 35 -352 0 -469 -8 -27 -31
-76 -51 -109 -38 -63 -43 -86 -20 -86 22 0 83 97 106 169 41 135 43 338 3 513
-13 55 -19 68 -35 68 -10 0 -19 -4 -19 -9z"/>
<path d="M35708 9858 c-9 -16 -13 -62 -13 -145 l0 -122 -45 -10 c-25 -5 -94
-17 -155 -26 -148 -21 -155 -23 -155 -39 0 -24 21 -24 175 1 212 34 195 35
212 -12 24 -70 54 -125 68 -125 26 0 26 19 0 69 -13 27 -34 85 -46 127 -20 74
-22 143 -7 273 4 32 -17 38 -34 9z"/>
<path d="M27837 9843 c-3 -5 1 -33 9 -63 25 -91 3 -233 -53 -343 -13 -27 -23
-57 -21 -68 6 -37 44 6 74 81 15 38 33 70 40 70 7 0 83 -11 168 -25 185 -30
186 -30 186 -7 0 16 -22 22 -176 47 l-176 28 6 81 c8 98 -10 199 -36 204 -9 2
-18 -1 -21 -5z"/>
</g>
</svg>
